<?xml version="1.0"?>
<svg xmlns="http://www.w3.org/2000/svg" viewBox="0 0 1254 1254" width="1254" height="1254">
  <g stroke-width="2" fill="none" stroke-linecap="butt">
    <path d="M 327.96 251.7C 279.02 293.92 240.33 344.75 212.8 402.53Q 192 446.17 180.8 492.49C 161.83 570.93 164.93 653.49 188.96 730.78C 211.22 802.37 248.96 868.37 301.47 921.03Q 320.8 940.42 338.71 955.02C 415.04 1017.27 510.54 1053.86 608.77 1057.5Q 731.17 1062.04 841.14 1003.4C 905.46 969.1 961.06 918.33 1001.81 858.72Q 1028 820.41 1046.43 776.43C 1068.07 724.8 1080.56 670.85 1083.05 615.74Q 1086.36 542.26 1065.7 471.31Q 1054.85 434.06 1036.69 397.11Q 1002.44 327.4 948.11 273.66C 864.85 191.31 752.45 141.79 634.89 140.01Q 516.8 138.22 411.94 193.94Q 367.59 217.5 327.96 251.7" stroke="rgba(128,139,155,1)" vector-effect="non-scaling-stroke"/>
    <path d="M 268.47 756.32Q 277.08 750.06 285.86 746.22A 0.42 0.41 66.9 0 0 286.07 745.68C 275.24 720.19 266.76 693.77 261.52 666.78Q 252.91 622.37 255.54 576.14Q 258.1 531.09 272.18 486.9Q 301.87 393.79 375.32 326.04C 469.62 239.06 603.43 207.06 726.94 241.66C 822.6 268.46 907.38 335.13 954.38 423.12C 981.86 474.57 996.84 532.9 997.28 591.41Q 997.88 671.22 965.35 745.78A 0.48 0.47 23.66 0 0 965.6 746.41Q 974.27 750.06 982.86 756.77" stroke="rgba(128,139,155,1)" vector-effect="non-scaling-stroke"/>
    <path d="M 982.86 756.77Q 984.45 758.23 987.21 760.56Q 999.58 771.02 1006.03 785.72A 0.29 0.29 -43.7 0 0 1006.56 785.73C 1044.98 708.86 1059.57 622.74 1048.04 537.94Q 1035.89 448.58 986.87 371.34C 910.77 251.43 776.9 174.71 634.62 172.48A 1.18 1.17 0.24 0 0 633.43 173.65L 633.41 207.21" stroke="rgba(0,91,147,1)" vector-effect="non-scaling-stroke"/>
    <path d="M 633.41 207.21L 619.85 207.25" stroke="rgba(128,139,155,1)" vector-effect="non-scaling-stroke"/>
    <path d="M 619.85 207.25L 619.7 173.36A 0.76 0.75 -86.08 0 0 619.05 172.61Q 616.11 172.22 612.25 172.5C 598.81 173.48 586.74 174.26 574.93 175.73C 491.2 186.19 412.08 221.21 348.71 276.52C 288.77 328.85 243.22 396.97 219.68 472.66C 195.04 551.92 194.11 634.86 217.39 714.56Q 224.64 739.4 233.95 761.1Q 241.57 778.88 244.55 785.21A 0.42 0.42 45.75 0 0 245.31 785.22Q 246.67 782.53 249.05 778.29Q 256.65 764.74 268.47 756.32" stroke="rgba(59,109,67,1)" vector-effect="non-scaling-stroke"/>
    <path d="M 619.85 207.25Q 556.08 208.3 496.91 229.17Q 411.28 259.38 346.33 325.34Q 329.39 342.54 313.51 363.51Q 270.94 419.71 250.61 487.13C 228.37 560.88 229.17 639.77 252.37 713.15C 255.14 721.91 258.99 734.02 263.37 744.24Q 265.92 750.17 268.47 756.32" stroke="rgba(186,225,168,1)" vector-effect="non-scaling-stroke"/>
    <path d="M 982.86 756.77Q 1006.59 703.76 1014.26 644.75Q 1021.99 585.21 1011.95 527.83Q 1000.3 461.27 966.58 402.89C 926.82 334.06 866.11 279.22 794.35 244.92Q 718.24 208.54 633.41 207.21" stroke="rgba(128,207,248,1)" vector-effect="non-scaling-stroke"/>
    <path d="M 626.96 406.89C 627.05 406.89 627.12 406.88 627.19 406.83Q 630.37 404.02 634.66 399.91Q 637.92 396.79 678.79 357.04Q 688.6 347.5 693.45 341.95C 704.98 328.78 710.01 310.02 704.03 293.46C 697.2 274.53 678.53 262.03 658.16 264.78C 645.38 266.51 635.02 273.54 627.61 283.86Q 627.49 284.03 627.18 284.03Q 626.87 284.03 626.75 283.86C 619.38 273.51 609.05 266.44 596.27 264.67C 575.91 261.84 557.2 274.27 550.3 293.18C 544.26 309.72 549.22 328.49 560.7 341.71Q 565.53 347.27 575.3 356.85Q 616.03 396.75 619.28 399.88Q 623.55 404.01 626.72 406.82C 626.79 406.88 626.86 406.89 626.96 406.89" stroke="rgba(128,139,155,1)" vector-effect="non-scaling-stroke"/>
    <path d="M 483.12 813.5Q 488.94 804.72 496.36 797.17C 500.36 793.11 503.85 790.58 509.36 786.13A 1.03 1.02 -32.31 0 0 509.64 784.89L 502.5 770.09A 1.35 1.32 87.41 0 0 501.78 769.42C 490.35 764.8 478.45 758.58 467.25 751.23Q 434.83 729.95 409.71 699.31Q 378.41 661.12 366.89 614.34Q 358.97 582.18 364.07 549.74Q 366.36 535.21 373.18 520.24C 375.3 515.6 378.18 511.86 381.32 507.49A 1.21 1.18 -39.17 0 0 381.45 506.33Q 375.9 493.44 377.01 478.99C 377.73 469.59 383.54 460.11 392.9 457.35A 2.23 2.09 -17.82 0 1 395.59 458.63Q 395.7 458.97 395.32 459.89Q 393.82 463.43 392.55 466.5Q 390.25 472.03 389.95 478.48" stroke="rgba(59,109,67,1)" vector-effect="non-scaling-stroke"/>
    <path d="M 389.95 478.48Q 388.86 483.67 390.45 490.56Q 392.83 500.86 397.56 508.39Q 403.82 518.37 415.08 527.9C 433.82 543.75 458.27 554.01 482.87 559.88C 503.99 564.92 528.45 565.96 549.44 557.99A 0.39 0.38 57.01 0 0 549.57 557.35L 543.11 550.89A 1.34 1.32 63.28 0 0 541.99 550.51Q 525.96 552.7 510.49 550.32Q 473.42 544.6 444.04 522.78Q 430.88 513.01 422.46 500.22A 0.85 0.85 51.56 0 0 421.16 500.07C 416.84 504.16 413.2 499.72 415.18 495.46Q 418.61 488.1 427.14 488.61Q 430.04 488.78 431.97 490.76C 433.46 492.29 433.26 494.32 431.28 495.12Q 430.24 495.54 430.15 495.63A 0.68 0.68 47.08 0 0 430.12 496.52Q 434.07 501.55 438.5 505.48Q 456.25 521.27 478.22 530.01C 497.36 537.62 517.95 542.09 538.42 540.35C 544.19 539.87 549.75 538.06 555.4 536.37C 558.39 535.48 562.95 534.73 564.97 535.45Q 572.32 538.08 578.68 539.16" stroke="rgba(128,125,71,1)" vector-effect="non-scaling-stroke"/>
    <path d="M 578.68 539.16Q 592.68 538.64 600.99 527.73C 614.9 509.46 611.12 484.94 591.96 472.04C 586.92 468.65 583.02 467.01 582.46 460.02Q 581.39 446.82 578.62 435.16C 567.16 386.82 527.41 349.25 478.58 341.4C 454.55 337.54 429.91 341 407.7 351.28Q 395.86 356.76 387.17 362.68C 359.89 381.23 339.25 407.88 324.36 437.58C 308.82 468.57 299.96 501.96 298.24 536.42Q 297.4 553.11 299.03 569.06C 303.4 611.68 317.51 652.62 339.16 689.87C 371.63 745.73 420.38 792.53 478.7 821.18A 0.52 0.52 27.15 0 0 479.4 820.94L 483.12 813.5" stroke="rgba(128,139,155,1)" vector-effect="non-scaling-stroke"/>
    <path d="M 578.68 539.16Q 586.43 534.35 591.06 528.34C 595.12 523.07 599.21 515.43 599.52 508.76Q 599.65 505.93 599.93 500.78A 3.82 3.8 -49.22 0 0 599.86 499.79Q 597.97 490.09 591.2 483.35" stroke="rgba(255,241,172,1)" vector-effect="non-scaling-stroke"/>
    <path d="M 591.2 483.35Q 587.36 480.58 583.83 478.02Q 578.97 474.5 577.09 472.04C 573.11 466.83 572.31 461.16 571.8 453.84Q 571.58 450.74 570.73 445.84Q 566.12 419.56 551.87 398.85Q 538.11 378.85 518.04 366.4Q 498.69 354.4 473.83 350.92Q 463.41 349.46 456.23 349.93Q 448.62 350.42 438.87 352.08Q 438.06 352.22 435.92 353.24A 0.9 0.89 77.55 0 0 435.41 354.05L 435.41 354.52A 0.86 0.86 -7.46 0 1 434.77 355.35C 420.03 359.21 406.45 367.67 394.14 376.39Q 390.01 379.31 387.13 381.87C 382.46 386.02 379.64 387.78 375.26 391.18C 371.4 394.18 368.49 397.86 365.12 400.52Q 362.33 402.71 359.58 405.71Q 349.86 416.32 341.46 428.17Q 340.88 428.98 339.41 431.73" stroke="rgba(186,225,168,1)" vector-effect="non-scaling-stroke"/>
    <path d="M 339.41 431.73Q 337.73 434.65 333.28 443.55Q 327.78 454.55 325.36 460.25Q 324.28 462.8 322.46 468.39C 321.05 472.7 319.24 476.66 317.98 481.26" stroke="rgba(207,236,197,1)" vector-effect="non-scaling-stroke"/>
    <path d="M 317.98 481.26Q 306.58 518.49 307.8 554.75Q 308.58 577.94 315.32 606.24C 317.32 614.68 320.38 623.48 323.18 632.82Q 325.18 639.51 332.55 655.96C 334.47 660.25 338.34 668.69 341.31 674.29Q 376.84 741.22 437.4 785.6Q 458.42 801.01 483.12 813.5" stroke="rgba(186,225,168,1)" vector-effect="non-scaling-stroke"/>
    <path d="M 591.2 483.35Q 585.97 487.58 579.41 489.92C 570.08 493.25 560.24 496.21 551.75 496.07C 544.62 495.95 539.51 496.23 533.63 495.33C 523.48 493.77 513.96 489.73 504.46 486.3Q 499.99 484.69 491.31 478.89" stroke="rgba(186,210,84,1)" vector-effect="non-scaling-stroke"/>
    <path d="M 491.31 478.89Q 500.42 457.89 492.76 435.03Q 489.84 426.32 483.29 418.42Q 475.07 408.49 462.73 406.09C 453.64 404.33 442.03 409.42 436.53 416.34Q 432.37 421.58 429.59 428.32Q 427.11 434.32 427.13 441.75C 427.14 447.59 427.13 452.69 428.7 457.94C 429.68 461.22 432.05 465.22 433.35 469.15" stroke="rgba(59,109,67,1)" vector-effect="non-scaling-stroke"/>
    <path d="M 433.35 469.15Q 424.75 463.35 415.34 460.04A 3.75 3.59 54.97 0 0 414.38 459.85C 408.08 459.49 402 462.48 397.19 466.43Q 392.57 470.23 389.95 478.48" stroke="rgba(186,210,84,1)" vector-effect="non-scaling-stroke"/>
    <path d="M 317.98 481.26C 323.2 479.68 324.46 474.42 326.83 468.96C 329.3 463.24 333.14 457.27 335.05 452.31Q 338.53 443.29 338.77 440.16Q 339.08 436.2 339.41 431.73" stroke="rgba(138,206,110,1)" vector-effect="non-scaling-stroke"/>
    <path d="M 491.31 478.89C 485.97 488.86 476.92 496.34 465.04 493.79" stroke="rgba(128,125,71,1)" vector-effect="non-scaling-stroke"/>
    <path d="M 465.04 493.79Q 456.85 490.56 452.01 482.23Q 443.55 467.68 445.63 451.94Q 446.86 442.68 452.43 435.42C 460 425.54 473.95 424.34 483.04 432.7C 484.2 433.77 485.12 435.2 486.44 436.38A 0.18 0.18 -82.94 0 0 486.72 436.16C 483.11 429.02 478.64 422.96 471.19 419.26C 459.01 413.2 445.89 419.52 439.33 430.32Q 432.01 442.39 433.33 456.24Q 434.21 465.54 436.59 471.88" stroke="rgba(128,139,155,1)" vector-effect="non-scaling-stroke"/>
    <path d="M 436.59 471.88Q 435.25 472.22 433.35 469.15" stroke="rgba(128,125,71,1)" vector-effect="non-scaling-stroke"/>
    <path d="M 465.04 493.79Q 465.2 494.31 465.19 494.32A 1.28 1.28 28.73 0 1 463.78 494.73C 458.09 492.79 452.04 490.48 447.58 486.43Q 443.37 482.6 442.89 481.86Q 439.47 476.57 436.59 471.88" stroke="rgba(255,241,172,1)" vector-effect="non-scaling-stroke"/>
    <path d="M 672.21 539.05Q 676.86 538.45 682.62 536.71C 690.65 534.29 694.73 536.29 703.04 538.93Q 705.88 539.83 712.25 540.4C 726.51 541.67 739.61 539.63 753.6 536.02Q 782.23 528.64 805.01 510.8Q 813.31 504.3 819.22 496.31A 0.53 0.52 -65.64 0 0 818.91 495.48C 817.37 495.15 815.77 493.31 816.63 491.68C 818.57 488.02 823.56 487.72 827.04 489.01Q 833.29 491.32 834.45 496.26Q 835.01 498.63 834.13 500.06C 832.17 503.23 829.9 500.8 828.13 499.31A 0.79 0.78 33.7 0 0 826.92 499.55Q 825.03 503.2 822.28 506.53Q 815.64 514.57 809.16 519.9C 788.55 536.84 762.12 547.02 735.75 550.68Q 721.3 552.68 707.95 550.53A 1.18 1.17 26.74 0 0 706.94 550.86L 700.2 557.59A 0.36 0.36 -58.41 0 0 700.34 558.18Q 710.52 561.52 717.49 562.68Q 721.28 563.31 733.19 563.7Q 740.94 563.95 748.85 562.99C 779.8 559.21 809.92 548.25 834.2 528.83C 840.14 524.08 845.76 517.97 850.23 512.24Q 854.55 506.71 857.09 499.86" stroke="rgba(0,91,147,1)" vector-effect="non-scaling-stroke"/>
    <path d="M 857.09 499.86Q 859.77 497.45 862.8 497.2A 0.43 0.43 3.03 0 1 863.26 497.71Q 863.19 498.1 863.31 498.27C 864.76 500.17 864.48 502.15 862.95 504.05Q 860.34 507.27 859.47 510.21A 0.52 0.52 75.73 0 0 860.34 510.73L 866.76 504.31A 0.54 0.54 58.14 0 1 867.65 504.52Q 869.11 508.72 869.5 509.35Q 876.88 521.28 878.77 525.77Q 881.61 532.51 883.69 535.75" stroke="rgba(1,16,39,1)" vector-effect="non-scaling-stroke"/>
    <path d="M 883.69 535.75C 899.84 593.56 877.15 656.61 839.78 701.03C 816.33 728.9 787.11 752.74 753.71 767.67A 0.85 0.84 62.21 0 0 753.34 768.88Q 763.45 785.21 766.24 805.05Q 766.81 809.09 767.58 813.29" stroke="rgba(0,91,147,1)" vector-effect="non-scaling-stroke"/>
    <path d="M 767.58 813.29L 767.86 822.99A 0.29 0.29 76.49 0 0 768.28 823.25Q 810.14 803.14 844.59 772.34C 905.9 717.54 947.32 640.96 952.46 558.27C 955.44 510.32 944.44 461.27 919.48 419.77C 895.53 379.95 856.75 346.82 809.2 340.98Q 781.6 337.58 756.36 345.89C 710.83 360.89 677.44 398.5 669.38 445.94Q 668.57 450.7 668.35 453.6C 667.91 459.24 667.92 463.58 664.91 467.3A 3.49 3.43 2.97 0 1 664.12 468Q 655.21 473.69 653.84 474.87Q 642.89 484.31 640.88 497.57C 638.4 513.92 645.2 529.14 660.17 536.87Q 665.01 539.37 672.21 539.05" stroke="rgba(128,139,155,1)" vector-effect="non-scaling-stroke"/>
    <path d="M 767.58 813.29Q 798.33 798.14 825.05 776.78Q 864.17 745.5 891.95 704.36C 896.74 697.27 902.28 687.76 905.37 682.41Q 916.52 663.06 925.27 639.53C 939.26 601.89 946.28 560.11 942.19 520.82C 937.59 476.52 922.06 434.62 893.59 400.42Q 880.66 384.89 864.24 373.28Q 839.2 355.59 809.49 351.07C 777.21 346.16 742.88 356.73 718.43 377.56Q 700.38 392.94 689.72 414.39Q 679.25 435.48 677.75 459.48Q 677.34 465.93 672.67 472.02C 669.95 475.57 664.59 478.6 660.21 481.96C 654.53 486.31 651.29 492.47 650.5 499.88Q 648.81 515.75 658.47 528.03Q 663.07 533.88 672.21 539.05" stroke="rgba(128,207,248,1)" vector-effect="non-scaling-stroke"/>
    <path d="M 883.69 535.75Q 880.56 525.45 875.42 516.06Q 872.78 511.23 869.24 507.32A 1.23 1.23 36.68 0 1 869.04 505.97Q 873.22 497.35 873.6 486.75" stroke="rgba(1,84,132,1)" vector-effect="non-scaling-stroke"/>
    <path d="M 873.6 486.75Q 873.93 480.8 873.04 475.73Q 870.88 463.35 859.03 457.94Q 857.33 457.16 855.81 457.65A 1.93 1.89 11.33 0 0 854.98 458.19Q 853.68 459.65 854.59 461.68Q 855.64 464.02 857.64 468.55Q 860.91 475.97 860.58 484.33" stroke="rgba(0,91,147,1)" vector-effect="non-scaling-stroke"/>
    <path d="M 860.58 484.33Q 860.44 492.14 857.09 499.86" stroke="rgba(1,84,132,1)" vector-effect="non-scaling-stroke"/>
    <path d="M 873.6 486.75Q 868.98 485.19 866.4 481.3A 1.3 1.3 -31.17 0 0 864.69 480.88Q 862.5 482.1 860.58 484.33" stroke="rgba(1,16,39,1)" vector-effect="non-scaling-stroke"/>
    <path d="M 382.76 533.13Q 378.68 543.93 377.26 555C 376.54 560.62 375.64 565.77 375.61 570.71Q 375.42 606.16 389.01 638.22Q 396.97 656.99 407.13 672.38Q 429.73 706.61 463.15 731.52" stroke="rgba(128,125,71,1)" vector-effect="non-scaling-stroke"/>
    <path d="M 463.15 731.52L 470.48 736.79" stroke="rgba(127,111,46,1)" vector-effect="non-scaling-stroke"/>
    <path d="M 470.48 736.79Q 481.93 744.51 494.12 750.64A 0.5 0.49 -81.01 0 0 494.83 750.12Q 494.03 745.19 492.77 740.27C 491.7 736.12 491.46 731.46 490.84 726.98" stroke="rgba(126,119,60,1)" vector-effect="non-scaling-stroke"/>
    <path d="M 490.84 726.98L 490.44 713.88" stroke="rgba(127,111,46,1)" vector-effect="non-scaling-stroke"/>
    <path d="M 490.44 713.88Q 491.04 694.15 497.88 675.46A 0.74 0.74 27.45 0 0 497.6 674.58C 494.05 672.2 489.72 669.56 486.82 667.49Q 476.4 660 467.13 651.29" stroke="rgba(128,125,71,1)" vector-effect="non-scaling-stroke"/>
    <path d="M 467.13 651.29L 461.39 645.52" stroke="rgba(106,104,54,1)" vector-effect="non-scaling-stroke"/>
    <path d="M 461.39 645.52Q 452.57 635.96 445.55 625.46Q 435.06 609.76 429.23 593.21" stroke="rgba(128,125,71,1)" vector-effect="non-scaling-stroke"/>
    <path d="M 429.23 593.21L 427.31 586.72" stroke="rgba(82,98,62,1)" vector-effect="non-scaling-stroke"/>
    <path d="M 427.31 586.72Q 424.58 576.21 424.47 567.04" stroke="rgba(128,125,71,1)" vector-effect="non-scaling-stroke"/>
    <path d="M 424.47 567.04L 425.48 552.4A 1.71 1.7 15.98 0 0 424.57 550.77C 416.68 546.71 411.65 542.55 404.5 536.7C 398.52 531.8 393.84 526.31 389.62 520.14A 0.5 0.5 44.77 0 0 388.79 520.14Q 384.6 526.35 382.76 533.13" stroke="rgba(127,111,46,1)" vector-effect="non-scaling-stroke"/>
    <path d="M 424.47 567.04Q 413.43 561.97 406.9 558.1Q 399.1 553.48 392.69 546.07Q 392.57 545.93 387.8 540.92Q 384.63 537.57 382.76 533.13" stroke="rgba(255,212,63,1)" vector-effect="non-scaling-stroke"/>
    <path d="M 427.31 586.72C 421.84 588.24 415.69 590.67 410.26 590.86Q 404.01 591.08 390.97 590.08A 3.06 3.04 19.31 0 0 388.23 591.39L 388.18 591.45A 1.22 1.22 -64.89 0 0 388.86 593.34L 402.66 596.98A 2.28 2.17 -35.11 0 0 403.13 597.05Q 416.82 597.85 429.23 593.21" stroke="rgba(209,199,79,1)" vector-effect="non-scaling-stroke"/>
    <path d="M 461.39 645.52L 450.22 654.22" stroke="rgba(233,205,71,1)" vector-effect="non-scaling-stroke"/>
    <path d="M 450.22 654.22Q 441.78 659.25 438.11 660.43C 430.51 662.88 423.69 665.87 414.94 666.99A 0.78 0.78 71.17 0 0 414.37 668.15L 415.77 670.58A 2.15 2.14 73.78 0 0 417.71 671.65Q 426.6 671.32 435.42 668.7C 440.44 667.21 445.55 664.28 450.43 661.66" stroke="rgba(255,212,63,1)" vector-effect="non-scaling-stroke"/>
    <path d="M 450.43 661.66Q 453.44 660.02 456.8 658.54Q 459.61 657.29 467.13 651.29" stroke="rgba(233,205,71,1)" vector-effect="non-scaling-stroke"/>
    <path d="M 490.44 713.88Q 487.95 714.7 485.83 716.38Q 482.33 719.17 481.65 719.52Q 479.44 720.65 477.54 721.97C 474.63 724.01 473.28 724.41 470.24 726.03A 2.08 0.81 -39.04 0 0 470 726.18L 463.15 731.52" stroke="rgba(255,212,63,1)" vector-effect="non-scaling-stroke"/>
    <path d="M 450.43 661.66Q 446.31 657.78 450.22 654.22" stroke="rgba(233,191,46,1)" vector-effect="non-scaling-stroke"/>
    <path d="M 490.84 726.98C 487.71 728.15 484.8 729.75 481.65 730.77C 477.12 732.24 473.9 733.58 470.48 736.79" stroke="rgba(253,207,51,1)" vector-effect="non-scaling-stroke"/>
    <path d="M 826.98 567.05Q 826.2 579.94 822.43 592.13" stroke="rgba(93,130,154,1)" vector-effect="non-scaling-stroke"/>
    <path d="M 822.43 592.13L 821.17 595.85" stroke="rgba(78,125,153,1)" vector-effect="non-scaling-stroke"/>
    <path d="M 821.17 595.85Q 810.22 624.76 788.27 647.02" stroke="rgba(93,130,154,1)" vector-effect="non-scaling-stroke"/>
    <path d="M 788.27 647.02L 783.01 652.25" stroke="rgba(78,125,153,1)" vector-effect="non-scaling-stroke"/>
    <path d="M 783.01 652.25Q 768.39 665.65 751.36 675.7A 0.94 0.93 -24.19 0 0 750.94 676.79Q 761.48 709.6 752.17 742.46Q 750.4 748.69 748.71 753.24A 0.63 0.63 88.93 0 0 749.54 754.04Q 755.51 751.63 761.99 747.98Q 793.26 730.31 818.57 703.82Q 828.17 693.78 835.57 683.64" stroke="rgba(93,130,154,1)" vector-effect="non-scaling-stroke"/>
    <path d="M 835.57 683.64L 837.81 680.77" stroke="rgba(78,125,153,1)" vector-effect="non-scaling-stroke"/>
    <path d="M 837.81 680.77C 857.33 654.05 870.46 623.71 874.48 590.75Q 876.78 571.93 873.34 552.2Q 871.99 544.44 869.86 538.67" stroke="rgba(93,130,154,1)" vector-effect="non-scaling-stroke"/>
    <path d="M 869.86 538.67Q 867.27 529.05 861.96 520.33A 0.54 0.54 -42.45 0 0 861.06 520.29Q 846.99 539.33 826.27 550.77A 1.16 1.16 69.97 0 0 825.69 552.02Q 827.17 559.31 826.98 567.05" stroke="rgba(78,125,153,1)" vector-effect="non-scaling-stroke"/>
    <path d="M 869.86 538.67Q 860.92 546.41 851.65 553.87Q 847.92 556.87 846.12 557.87Q 836.85 563.02 826.98 567.05" stroke="rgba(171,232,253,1)" vector-effect="non-scaling-stroke"/>
    <path d="M 837.81 680.77Q 838.09 678.22 836.22 677.65Q 834.37 677.1 834.34 677.09Q 824.84 672.61 809.99 665.85A 9.91 8.9 71.73 0 1 808.42 664.95L 800.96 659.67A 22.02 21.92 -4.08 0 1 797.75 656.9L 788.27 647.02" stroke="rgba(171,232,253,1)" vector-effect="non-scaling-stroke"/>
    <path d="M 821.17 595.85Q 823.87 600.5 829.91 602.07C 836.81 603.85 845.08 604.93 851.03 600.92A 0.76 0.76 -58.06 0 0 850.71 599.54C 841.52 598.28 836.56 598.02 829.46 594.97Q 826 593.48 822.43 592.13" stroke="rgba(171,232,253,1)" vector-effect="non-scaling-stroke"/>
    <path d="M 835.57 683.64Q 829.86 684.02 826.12 681.89Q 820.35 678.61 815.33 676.09Q 806.86 671.86 804.48 670.38Q 792.47 662.92 783.01 652.25" stroke="rgba(171,232,253,1)" vector-effect="non-scaling-stroke"/>
    <path d="M 565.84 564.56Q 562.47 569.57 566.4 574.1A 0.48 0.47 -42.68 0 0 567.1 574.12Q 567.7 573.53 568.09 572.7" stroke="rgba(1,16,39,1)" vector-effect="non-scaling-stroke"/>
    <path d="M 568.09 572.7Q 568.15 572.71 568.22 572.72" stroke="rgba(126,54,82,1)" vector-effect="non-scaling-stroke"/>
    <path d="M 568.22 572.72Q 569.57 580.79 568.54 588.79A 0.66 0.66 72.72 0 0 569.64 589.37C 573.6 585.85 575.36 579.4 575.7 574.2A 0.35 0.34 -64.04 0 1 576.3 573.99Q 581.73 579.95 589.91 581.94A 0.53 0.53 77.55 0 0 590.45 581.09L 574.18 560.42" stroke="rgba(128,139,155,1)" vector-effect="non-scaling-stroke"/>
    <path d="M 574.18 560.42Q 570.35 553.84 564.85 548.42A 0.75 0.75 53.31 0 0 563.98 548.29L 563.95 548.31A 0.43 0.43 56.73 0 0 563.82 548.96Q 567.39 553.32 569.43 558.59A 0.26 0.26 14.89 0 1 568.98 558.85Q 564.36 553.18 558.32 548.16A 2.83 2.81 58.8 0 0 555.94 547.57L 555.62 547.64A 0.75 0.74 60.87 0 0 555.26 548.91Q 562.04 555.35 565.84 564.56" stroke="rgba(126,54,82,1)" vector-effect="non-scaling-stroke"/>
    <path d="M 574.18 560.42Q 572.59 563.54 572.62 564.73Q 572.7 569.18 572.6 571.53A 1.1 1.1 -78.41 0 1 571.12 572.51Q 570.52 572.28 570.08 571.81A 1.06 1.06 64.34 0 0 569.15 571.48Q 568.11 571.63 568.22 572.72" stroke="rgba(253,170,183,1)" vector-effect="non-scaling-stroke"/>
    <path d="M 568.09 572.7L 565.84 564.56" stroke="rgba(126,47,67,1)" vector-effect="non-scaling-stroke"/>
    <path d="M 679.08 555.36L 658.91 580.79A 0.7 0.7 11.75 0 0 659.64 581.9Q 667.63 579.79 673.6 573.78A 0.59 0.58 67.21 0 1 674.6 574.19Q 674.64 582.89 679.88 589.3A 0.55 0.55 -68.23 0 0 680.85 588.88Q 679.52 577.84 682.67 566.92" stroke="rgba(128,139,155,1)" vector-effect="non-scaling-stroke"/>
    <path d="M 682.67 566.92Q 686.79 556.61 694.3 548.75A 0.63 0.63 -68.03 0 0 693.85 547.69L 691.51 547.69A 3.09 3.08 22.56 0 0 689.34 548.58L 682.67 555.25A 0.34 0.34 -17.12 0 1 682.1 554.95C 682.54 552.79 684.18 551.03 685.06 549.16A 0.24 0.23 82.43 0 0 684.7 548.88Q 680.89 552.1 679.08 555.36" stroke="rgba(126,54,82,1)" vector-effect="non-scaling-stroke"/>
    <path d="M 682.67 566.92Q 680.76 566.92 680.62 570.05A 1.68 1.66 57.02 0 1 680.51 570.59Q 679.98 572.01 678.51 572.78A 0.58 0.58 -16.96 0 1 677.66 572.33Q 676.76 564.59 679.08 555.36" stroke="rgba(253,170,183,1)" vector-effect="non-scaling-stroke"/>
    <path d="M 531.22 773.79Q 554.4 762.37 581.49 759.12Q 585.4 758.65 589.2 758.45A 0.35 0.35 68.41 0 0 589.45 757.87C 584.3 751.69 578.74 743.33 576.92 735.14Q 575.31 727.87 575.13 724.44Q 573.92 700.75 591.45 684.38Q 598.83 677.47 607.94 674.16Q 624.58 668.1 641.19 672.57Q 660.06 677.66 670.46 693.98A 5.41 5.35 86.36 0 0 672.64 695.92C 684.2 701.6 693.96 708.57 705.25 716.75C 708.9 719.38 713.01 723.16 717.01 726.25" stroke="rgba(59,109,67,1)" vector-effect="non-scaling-stroke"/>
    <path d="M 717.01 726.25L 727.46 736.25" stroke="rgba(109,132,134,1)" vector-effect="non-scaling-stroke"/>
    <path d="M 727.46 736.25L 734.93 744.08A 0.45 0.45 -55.33 0 0 735.67 743.94C 739.26 735.29 740.43 727.11 741.08 717.17Q 741.9 704.8 740.3 695.49Q 735.27 666.15 716.01 643.26Q 704.45 629.52 690.85 621.47Q 678.98 614.44 672.84 611.94C 660.1 606.75 646.29 603.57 632.7 602.93Q 591.91 601.01 557.49 623.52Q 527.56 643.09 513.87 675.12Q 505.78 694.05 505.03 712.29Q 503.6 747.01 522.38 777.54A 0.71 0.71 -29.09 0 0 523.31 777.8L 531.22 773.79" stroke="rgba(128,139,155,1)" vector-effect="non-scaling-stroke"/>
    <path d="M 727.46 736.25C 731.1 726.2 731.26 714.84 730.96 704.31Q 730.77 697.52 728.89 693.17Q 725.15 684.49 723.98 677.06" stroke="rgba(237,248,234,1)" vector-effect="non-scaling-stroke"/>
    <path d="M 723.98 677.06Q 718.66 661.61 707.26 648.57Q 701.66 642.15 694.28 636.45C 685.57 629.71 677.26 624.38 667.49 621.02C 658.33 617.86 649.48 614.82 640.52 614.13Q 620.42 612.57 605.94 614.99Q 585.31 618.44 563.23 631.71Q 557.8 634.98 547.23 644.49Q 542.35 648.89 538.42 654.11Q 531.34 663.51 530.64 664.65C 522.25 678.33 516.47 693.74 515.29 709.7Q 514.58 719.31 514.84 722.74Q 515.46 730.96 516.61 737.16Q 517.75 743.32 520.68 751.1Q 525.06 762.75 531.22 773.79" stroke="rgba(186,225,168,1)" vector-effect="non-scaling-stroke"/>
    <path d="M 723.98 677.06Q 723.26 681.37 723.36 685.14Q 723.52 691.59 723.48 692.35Q 722.84 707.12 717.67 720.89A 1.55 1.42 60.91 0 0 717.57 721.31L 717.01 726.25" stroke="rgba(168,218,147,1)" vector-effect="non-scaling-stroke"/>
    <path d="M 618.19 843.43Q 610.3 838.96 603.8 833.36A 2.51 2.34 72.37 0 0 602.93 832.87C 598.63 831.5 593.71 831.94 588.83 832.22C 577.77 832.84 569.2 835.94 560.09 843.1C 549.81 851.18 546.91 865.69 556.15 875.86Q 563.8 884.28 571.63 889.47" stroke="rgba(1,81,143,1)" vector-effect="non-scaling-stroke"/>
    <path d="M 571.63 889.47Q 583.34 897.84 597.31 903.2Q 632.94 916.88 670.96 909.76C 714.93 901.54 754.38 867.57 753.67 819.47C 753.25 790.82 739.03 767.03 719.15 746.99C 715.31 743.12 711.44 740.06 708.11 737.02Q 704.35 733.59 699.33 729.84Q 684.67 718.89 667.21 708.99Q 660.65 705.26 658.26 704.11Q 650.29 700.26 649.14 699.6C 640.77 694.84 631.33 691.18 622.7 686.83A 3.89 3.84 49.92 0 0 619.87 686.57Q 612.95 688.64 607.17 691.92C 599.3 696.37 593.91 704.88 591.42 713.47C 588.48 723.57 591.8 736.08 598.46 743.91A 4.42 4.4 -6.26 0 0 599.79 744.97Q 624.5 757.81 625.3 758.24Q 643.32 767.93 650.31 772.45C 666.43 782.87 688.34 800.21 688.97 821.09Q 689.38 834.82 679.1 844.29Q 671.6 851.18 663.85 852.8Q 653.85 854.87 647.49 854.06Q 632.64 852.15 618.19 843.43" stroke="rgba(0,91,147,1)" vector-effect="non-scaling-stroke"/>
    <path d="M 571.63 889.47Q 571.5 885.56 570.9 881.83Q 569.91 875.67 569.91 874.23C 569.91 862.11 577.54 856.07 587.43 850.7Q 593.4 847.45 600.41 846.37Q 612.12 844.56 618.19 843.43" stroke="rgba(1,149,236,1)" vector-effect="non-scaling-stroke"/>
    <path d="M 320.89 879.64A 1.65 1.64 -69.55 0 1 322.49 878.9Q 330.87 880.07 339.77 878.74A 1.37 1.37 70.54 0 1 341.16 879.41L 347.06 889.62A 2.36 2.35 -27.56 0 0 350.11 890.57Q 361.36 885.25 367.55 881.77C 369.58 880.63 371.13 878.88 370.29 876.67Q 366.47 866.67 366.25 866.03A 1.58 1.57 -34.15 0 1 366.55 864.51Q 371.94 858.22 375.92 850.72A 1.78 1.78 12.9 0 1 377.42 849.78L 388.93 849.27A 2.97 2.97 -87.32 0 0 391.74 846.71L 394.25 828.14A 2.72 2.71 -78.81 0 0 392.25 825.15L 381.7 822.37A 1.27 1.25 -1.16 0 1 380.83 821.55L 376.43 808.17A 1.97 1.97 -34.47 0 1 376.78 806.3L 385.02 796.24A 2.23 2.22 -44.33 0 0 385.06 793.46Q 379.58 786.37 373.56 780.08C 372.07 778.52 371.07 778.53 369.31 779.63Q 363.78 783.09 359.04 785.92A 1.34 1.33 41.62 0 1 357.8 785.99L 345.59 780.58A 1.22 1.21 8.58 0 1 344.89 779.64L 343.27 767.29A 1.15 1.15 28.93 0 0 343.15 766.93Q 341.77 764.59 339.83 764.62Q 329.56 764.78 323.03 764.77Q 320.19 764.77 319.76 767.08Q 318.83 771.97 317.77 778.7A 2.2 2.2 -8.43 0 1 316.56 780.33L 304.85 785.97A 1.43 1.42 -41.52 0 1 303.46 785.89L 292.1 778.63A 1.38 1.35 -29.69 0 0 291.26 778.41Q 289.4 778.54 287.69 780.42Q 281.52 787.21 279.07 789.82Q 277.37 791.63 276.47 793.19A 3.95 3.86 -22.5 0 0 276.11 794.03Q 275.82 794.95 277.18 796.82Q 280.66 801.64 284.53 806.5A 1.46 1.44 -52.56 0 1 284.72 808.01Q 281.96 814.07 281.07 820.75A 1.88 1.88 -2.95 0 1 279.64 822.33Q 271.13 824.4 270.83 824.47C 268.33 825.03 266.62 826.27 266.97 828.99Q 268.75 842.93 269.7 847.1A 3.13 3.13 83.5 0 0 272.75 849.53L 283.99 849.53A 1.04 1.04 -13.47 0 1 284.92 850.1Q 288.9 858 294.36 864.35A 2.72 2.71 32.76 0 1 294.91 866.86Q 293.3 872.47 292.16 876.07Q 291.11 879.36 293.06 880.46Q 305.6 887.59 311.43 890.52A 2.35 2.34 29.64 0 0 314.47 889.69L 320.89 879.64" stroke="rgba(59,109,67,1)" vector-effect="non-scaling-stroke"/>
    <path d="M 868.46 821.96Q 867.15 822.38 858.52 824.8C 855.9 825.54 855.06 826.91 855.38 829.5Q 856.54 838.96 858.01 847.22A 2.8 2.8 -5.02 0 0 860.77 849.53L 871.87 849.53A 1.61 1.6 -13.05 0 1 873.31 850.42Q 877.39 858.6 882.74 864.85A 1.02 1.02 -54.74 0 1 882.92 865.9Q 880.89 871.24 879.04 876.47Q 877.94 879.58 880.22 880.9Q 889.1 886 899.69 890.63A 1.7 1.7 28.07 0 0 901.8 889.99L 908.9 878.88A 0.7 0.69 22.44 0 1 909.63 878.58Q 918.35 880.37 927.16 878.58A 1.73 1.72 -20.73 0 1 928.99 879.4L 935.05 889.91A 1.95 1.95 66.77 0 0 937.3 890.81C 942.2 889.34 948.01 885.7 956.33 881.11C 958.04 880.17 959.35 878.77 958.67 877.02Q 956.65 871.89 954.39 865.66A 0.9 0.9 -33.45 0 1 954.58 864.75Q 960.6 858.46 964.56 850.01A 1.02 1.02 -77.02 0 1 965.5 849.42Q 971.39 849.47 973.78 849.41C 977.34 849.32 979.26 849.84 980.01 846.24Q 981.01 841.37 982.42 828.34Q 982.69 825.8 980.55 825.16Q 974.96 823.5 969.82 822.17A 0.94 0.93 88.81 0 1 969.15 821.52L 965.15 807.77A 1.22 1.22 -32.75 0 1 965.4 806.64Q 973.4 797.38 973.52 797.25Q 975.44 795.11 973.37 792.46Q 967.68 785.18 962.05 779.25A 1.94 1.94 53.12 0 0 959.69 778.91L 947.81 785.77A 1.75 1.74 41.55 0 1 946.24 785.86L 935.16 780.94A 1.51 1.51 -81.29 0 1 934.28 779.74L 932.87 767.6A 0.86 0.76 30.13 0 0 932.78 767.33Q 931.48 764.94 929.52 764.92Q 920.85 764.85 913.53 764.68C 909.87 764.6 908.8 766.19 908.31 769.69Q 907.91 772.61 906.86 779.25A 1.59 1.59 83.33 0 1 905.9 780.47L 893.58 785.59A 1.58 1.56 49.77 0 1 892.12 785.46L 881.47 778.66A 2.59 2.58 -51.59 0 0 878.23 779.04Q 869.41 788.13 865.97 792.42Q 864.43 794.34 865.59 795.8Q 870.14 801.51 873.46 806.06A 1.85 1.83 -49.51 0 1 873.6 807.98Q 870.25 814.42 869.32 820.94A 1.26 1.25 85.15 0 1 868.46 821.96" stroke="rgba(0,91,147,1)" vector-effect="non-scaling-stroke"/>
    <path d="M 556.17 898.72Q 553.82 896.63 552.06 895.21C 538.14 884.01 529.85 865.66 537.24 848.47C 542.99 835.12 553.33 827.2 566.81 821.84C 579.8 816.67 595.92 815.72 610.52 819.67Q 618.55 821.84 620.76 822.74Q 626.74 825.14 639.21 831.74C 642.47 833.46 644.58 835.35 648.22 838.11A 2.24 2.18 -22.59 0 0 649.28 838.53C 656.34 839.39 664.29 837.64 668.85 831.9C 676.69 822.03 671.08 810.06 663.7 801.86C 653.38 790.39 639.86 782.29 626.44 775.56A 5.93 5.84 -25.2 0 0 624.99 775.05C 594.64 768.39 562.58 773.68 535.1 787.66C 522.84 793.89 510.83 801.72 502.33 811.82Q 494.09 821.6 491.2 830.18C 478.01 869.29 527.31 891.04 555.95 899.12A 0.23 0.23 73.82 0 0 556.17 898.72" stroke="rgba(128,125,71,1)" vector-effect="non-scaling-stroke"/>
    <path d="M 461.51 894.98A 2.62 2.62 -59.54 0 0 458.13 895.86Q 456.37 898.53 455.1 900.86Q 446.65 916.27 432.87 940.08C 428.23 948.09 419.29 950.02 411.99 944.19Q 401.68 935.96 408.49 923.99Q 410.18 921.02 432.79 884.15C 433.93 882.31 434.81 880.05 432.75 878.7Q 427.55 875.26 419.57 870.29C 417.66 869.1 415.42 868.38 414.13 870.38Q 410.57 875.89 391.02 907.96Q 385.15 917.6 384.04 922.08C 378.63 944.01 391.97 961.29 412.38 967.87C 428.93 973.2 444.71 966.73 453.1 951.82Q 468.67 924.11 477.23 909.19C 478.59 906.82 479.33 904.41 476.62 902.96Q 465.73 897.14 461.51 894.98" stroke="rgba(128,139,155,1)" vector-effect="non-scaling-stroke"/>
    <path d="M 834.41 943.33A 0.94 0.94 62.65 0 1 834.82 942.04Q 843.5 937.82 850.33 932.37C 860.39 924.36 864.95 911.71 860.5 899.43C 854.57 883.06 840.61 873.74 823 878.54Q 817.49 880.04 813.29 882.53Q 797.23 892.07 786.52 898.24Q 784.46 899.43 784.76 901.98A 0.93 0.86 28.76 0 0 784.88 902.34Q 786.15 904.58 824.07 973.2Q 825.82 976.37 829.31 974.41Q 836.77 970.21 844.03 966.05A 2.42 2.28 1.76 0 0 844.72 965.44Q 846.1 963.66 844.54 961.06Q 839.06 951.94 834.41 943.33" stroke="rgba(128,139,155,1)" vector-effect="non-scaling-stroke"/>
    <path d="M 744.83 950.24L 741.01 938.62A 0.53 0.52 71.05 0 1 741.33 937.95L 774.67 926.2A 2.56 2.56 70.89 0 0 776.24 922.96Q 775.06 919.47 771.75 909.75C 771.13 907.94 770.01 906.17 767.96 906.95Q 741.9 916.81 716.39 924.67A 3.03 3.02 85.71 0 0 714.29 927.12Q 714.07 928.69 714.79 930.99Q 725.82 966.1 738.07 1005.71Q 738.81 1008.12 741.51 1008.2A 2.35 2.31 37.37 0 0 742.31 1008.1Q 770.57 999.55 797.59 989.1C 800.07 988.14 800.13 986.23 799.16 983.88Q 797.05 978.81 794.87 972.41C 794.24 970.55 793.1 969 791.06 969.8Q 774.42 976.33 756.49 982.26A 0.85 0.85 -18.98 0 1 755.42 981.74L 751.32 970.1A 0.9 0.89 -20.1 0 1 751.85 968.97Q 756.65 967.16 770.32 962.54Q 779.86 959.31 781.47 958.44Q 783.41 957.4 782.59 955.2Q 779.65 947.32 777.98 941.77A 2.32 2.31 71.9 0 0 774.99 940.25L 745.59 950.61A 0.59 0.59 -18.89 0 1 744.83 950.24" stroke="rgba(128,139,155,1)" vector-effect="non-scaling-stroke"/>
    <path d="M 531.15 970.5L 514.09 918.66A 3.26 3.25 0.21 0 0 512.03 916.59Q 498.04 911.88 496.93 911.58C 493.79 910.72 492.6 911.88 491.72 914.78Q 489.61 921.8 477.38 960.42Q 471.95 977.52 469.02 986.16C 467.62 990.28 465.85 993.26 470.63 994.9Q 474.41 996.2 483.36 999.15C 485.84 999.97 488.39 1001.1 489.28 998.29Q 497.71 971.62 502.67 955.65A 0.67 0.67 44.41 0 1 503.94 955.64L 521.63 1009.4A 1.85 1.8 -75.82 0 0 522 1010.04Q 523.15 1011.29 525.08 1011.7Q 532.99 1013.36 539.42 1015.1Q 543.87 1016.31 544.89 1011.59Q 547.01 1001.87 549.26 993.79C 554.43 975.22 559.2 956.27 563.96 937.96C 564.91 934.33 566.23 930.9 561.87 929.93Q 554.51 928.3 546.53 926.52Q 543.86 925.92 543.22 928.28Q 538.38 946.26 532.16 970.47A 0.53 0.53 43.24 0 1 531.15 970.5" stroke="rgba(128,139,155,1)" vector-effect="non-scaling-stroke"/>
    <path d="M 606.83 939.12A 3.27 3.27 0 0 0 603.87 935.56L 586.85 933.98A 3.27 3.27 0 0 0 583.29 936.93L 575.79 1017.72A 3.27 3.27 0 0 0 578.75 1021.28L 595.77 1022.86A 3.27 3.27 0 0 0 599.33 1019.91L 606.83 939.12" stroke="rgba(128,139,155,1)" vector-effect="non-scaling-stroke"/>
    <path d="M 625.65 940.2L 630.52 1019.89A 3.93 3.93 0.55 0 0 634.68 1023.57L 665.89 1021.66A 43.22 42.16 -3.5 0 0 706.46 976.94L 706.25 973.57A 43.22 42.16 -3.5 0 0 660.54 934.13L 629.33 936.04A 3.93 3.93 -65.99 0 0 625.65 940.2" stroke="rgba(128,139,155,1)" vector-effect="non-scaling-stroke"/>
    <path d="M 627.15 391.15Q 627.38 391.15 627.52 391.01Q 652.2 367.08 678.41 341.4Q 683.86 336.06 686.98 331.47C 694.37 320.59 697.45 306.79 691.4 294.41C 683.12 277.44 664.62 271.65 647.75 280.33C 641.26 283.67 636.37 289.64 631.5 295.96C 630.48 297.28 627.6 301.55 627.44 301.61Q 627.37 301.64 627.18 301.64Q 626.99 301.64 626.91 301.61C 626.75 301.55 623.88 297.28 622.86 295.96C 617.99 289.63 613.1 283.66 606.62 280.32C 589.75 271.63 571.25 277.4 562.96 294.37C 556.9 306.75 559.97 320.55 567.35 331.43Q 570.47 336.02 575.92 341.37Q 602.11 367.06 626.78 391.01Q 626.92 391.15 627.15 391.15" stroke="rgba(253,170,183,1)" vector-effect="non-scaling-stroke"/>
    <path d="M 369.42 411.58C 377.79 414.14 384.99 409.65 392.61 407.49A 16.1 16.08 39.21 0 1 398.17 406.93C 406.3 407.55 413.62 408.56 419.85 402.29C 422.53 399.59 424.65 397.77 425.68 394.95A 1.14 1.13 12.56 0 0 424.71 393.43C 421.8 393.16 419.13 395.49 416.59 397.34C 411.24 401.24 401.68 400.51 394.94 400.36C 391.17 400.28 388.43 401.16 385.4 402.5C 381.18 404.35 376.79 403.68 373.46 404.33C 371.46 404.72 366.75 406.78 367.79 409.52Q 368.47 411.29 369.42 411.58" stroke="rgba(100,184,77,1)" vector-effect="non-scaling-stroke"/>
    <path d="M 381.26 428.22Q 378.32 426.81 376.11 427.03A 1.5 1.47 21.41 0 0 375.24 427.4C 369.64 432.26 362.75 436.71 355.24 435.44A 1.24 1.24 -77.8 0 0 353.83 436.35L 352.51 441.34A 1.31 1.31 14.89 0 0 353.44 442.94L 358.68 444.32A 0.61 0.61 -55.03 0 0 359.18 444.23Q 366.96 438.57 375.72 438.31A 1.61 1.6 -74.5 0 0 377.04 437.56L 381.8 430.12A 1.32 1.31 -60.94 0 0 381.26 428.22" stroke="rgba(100,184,77,1)" vector-effect="non-scaling-stroke"/>
    <path d="M 886.02 411.11A 1.24 1.24 50.56 0 0 886.23 408.94Q 883.21 406.89 876.37 403.4C 873.06 401.72 869.75 402.7 865.92 403.04C 862.54 403.33 858.83 399.75 857.16 398.65A 1.85 1.85 -48.28 0 0 854.79 398.79L 852.19 401.21A 1.31 1.24 -69.71 0 1 851.52 401.54Q 846.28 402.3 842.29 401.21Q 834.15 399 827.99 393.62C 826.21 392.07 824.85 391.37 822.68 391.61A 0.7 0.7 -20.54 0 0 822.18 392.7Q 825.65 397.71 830.06 402.23C 836.6 408.94 845.12 408.34 853.77 407.26A 9.51 9.36 -43.9 0 1 856.4 407.29Q 862.28 408.18 868.77 410.17Q 870.05 410.57 874.98 410.22A 16.23 15.71 -42.47 0 1 878.22 410.31Q 879.34 410.46 884.13 411.03Q 885.76 411.22 886.02 411.11" stroke="rgba(1,142,230,1)" vector-effect="non-scaling-stroke"/>
    <path d="M 756.62 434.82Q 752.71 445.24 752.79 456.75C 752.86 465.62 755 475.59 760.28 482.86Q 763.73 487.6 764.9 488.61Q 773.76 496.21 784.58 493.7" stroke="rgba(0,91,147,1)" vector-effect="non-scaling-stroke"/>
    <path d="M 784.58 493.7Q 784.44 494.37 786.08 493.94Q 789.91 492.94 792.58 491.96C 803.64 487.9 809.58 479.09 813.6 468.29" stroke="rgba(128,207,248,1)" vector-effect="non-scaling-stroke"/>
    <path d="M 813.6 468.29Q 814.03 469.57 814.82 467.48" stroke="rgba(1,142,230,1)" vector-effect="non-scaling-stroke"/>
    <path d="M 814.82 467.48Q 818.02 463.66 819.18 459.44C 824.07 441.82 822.13 418.46 803.61 409.21" stroke="rgba(0,91,147,1)" vector-effect="non-scaling-stroke"/>
    <path d="M 803.61 409.21Q 795.52 404.8 787.26 406C 772.42 408.16 761.34 421.22 756.62 434.82" stroke="rgba(1,84,132,1)" vector-effect="non-scaling-stroke"/>
    <path d="M 803.61 409.21C 794.79 407.81 783.38 406.48 775.56 412.07A 0.99 0.92 83.25 0 0 775.23 412.52Q 775.08 412.93 774.63 413.27A 0.2 0.2 -65.46 0 0 774.76 413.63Q 775.34 413.58 776.67 414.61Q 778.29 415.86 780.82 415.69C 787.08 415.27 792.73 412.55 797.77 419.13" stroke="rgba(1,16,39,1)" vector-effect="non-scaling-stroke"/>
    <path d="M 797.77 419.13C 784.89 413 772.13 419.24 764.83 430.58Q 762.24 434.6 761.4 436.73" stroke="rgba(128,132,139,1)" vector-effect="non-scaling-stroke"/>
    <path d="M 761.4 436.73Q 760.53 436.25 760.16 435.83A 0.78 0.78 38.01 0 1 760.05 434.96C 763.41 428.29 767.03 425.18 773.31 419.64A 0.57 0.57 -38.32 0 0 773.4 418.88Q 772.55 417.72 771.72 417.87A 0.44 0.44 84.56 0 1 771.2 417.44L 771.2 416.72A 0.32 0.32 67.47 0 0 770.68 416.46Q 764.25 421.33 762 426.27Q 759.36 432.05 756.62 434.82" stroke="rgba(1,16,39,1)" vector-effect="non-scaling-stroke"/>
    <path d="M 814.82 467.48Q 814.31 467.4 814.21 466.27" stroke="rgba(1,74,137,1)" vector-effect="non-scaling-stroke"/>
    <path d="M 814.21 466.27Q 815.58 459.04 815.59 452.52C 815.6 439.98 809.54 425.17 797.77 419.13" stroke="rgba(128,139,155,1)" vector-effect="non-scaling-stroke"/>
    <path d="M 761.4 436.73Q 763.06 435.3 764.63 433.74C 778.48 420 797.46 429.68 801.94 446.3Q 807.46 466.8 795.73 484.23Q 791.6 490.37 784.58 493.7" stroke="rgba(128,139,155,1)" vector-effect="non-scaling-stroke"/>
    <path d="M 814.21 466.27L 813.6 468.29" stroke="rgba(129,190,238,1)" vector-effect="non-scaling-stroke"/>
    <path d="M 869.02 426.96Q 866.26 425.52 864.33 422.76A 0.97 0.96 35 0 0 862.6 423.06L 862.14 424.78A 3.92 3.91 38.57 0 0 862.46 427.58C 865.03 432.5 868.82 435.97 874.77 433.87A 3.54 3.54 54.81 0 1 878.18 434.46C 882.72 438.18 889.79 444.56 895.28 443.69A 1.28 1.27 -4.49 0 0 896.36 442.43Q 896.37 440.41 895.3 438.17A 1.4 1.38 89.23 0 0 894.61 437.49C 893.42 436.96 891.54 436.86 890.23 436.09Q 886.7 434.03 883.14 432.89C 879.51 431.73 877.05 429.95 875.75 426.66A 1.63 1.62 -20.4 0 0 873.7 425.73L 870 427.03A 1.23 1.21 -40.3 0 1 869.02 426.96" stroke="rgba(1,142,230,1)" vector-effect="non-scaling-stroke"/>
    <path d="M 663.66 500.18A 8.18 5.17 -115.7 0 0 662.55 509.79A 8.18 5.17 -115.7 0 0 670.76 514.92A 8.18 5.17 -115.7 0 0 671.87 505.31A 8.18 5.17 -115.7 0 0 663.66 500.18" stroke="rgba(0,91,147,1)" vector-effect="non-scaling-stroke"/>
    <path d="M 722.39 504.17A 9.82 6.1 -44.5 0 0 711.11 506.7A 9.82 6.1 -44.5 0 0 708.39 517.93A 9.82 6.1 -44.5 0 0 719.67 515.4A 9.82 6.1 -44.5 0 0 722.39 504.17" stroke="rgba(0,91,147,1)" vector-effect="non-scaling-stroke"/>
    <path d="M 475.03 439.1A 11.22 9.18 -95 0 0 466.86 451.08A 11.22 9.18 -95 0 0 476.99 461.46A 11.22 9.18 -95 0 0 485.16 449.48A 11.22 9.18 -95 0 0 475.03 439.1" stroke="rgba(128,139,155,1)" vector-effect="non-scaling-stroke"/>
    <path d="M 773.37 438.99A 11.35 9.35 -85.8 0 0 763.22 449.63A 11.35 9.35 -85.8 0 0 771.71 461.63A 11.35 9.35 -85.8 0 0 781.86 450.99A 11.35 9.35 -85.8 0 0 773.37 438.99" stroke="rgba(128,139,155,1)" vector-effect="non-scaling-stroke"/>
    <path d="M 587.65 500.15A 8.74 5.45 -61.9 0 0 578.72 505.29A 8.74 5.45 -61.9 0 0 579.41 515.57A 8.74 5.45 -61.9 0 0 588.34 510.43A 8.74 5.45 -61.9 0 0 587.65 500.15" stroke="rgba(128,125,71,1)" vector-effect="non-scaling-stroke"/>
    <path d="M 527.35 504.19A 9.66 6.32 -136 0 0 529.91 515.45A 9.66 6.32 -136 0 0 541.25 517.61A 9.66 6.32 -136 0 0 538.69 506.35A 9.66 6.32 -136 0 0 527.35 504.19" stroke="rgba(128,125,71,1)" vector-effect="non-scaling-stroke"/>
    <path d="M 759.04 717.95A 6.04 6.01 -65.26 0 0 760.97 723.22Q 768.27 729.79 776.74 732.5A 6.59 6.58 -54.65 0 0 782.7 731.48L 783.12 731.21A 1.72 1.71 40.63 0 0 782.89 728.22L 771.87 723.18A 3.16 2.84 -11.17 0 1 771.4 722.9L 761.85 715.62A 1.66 1.65 -67.56 0 0 759.21 716.72L 759.04 717.95" stroke="rgba(171,232,253,1)" vector-effect="non-scaling-stroke"/>
    <path d="M 355.76 829.73A 25.31 25.31 0 0 0 330.45 804.42A 25.31 25.31 0 0 0 305.14 829.73A 25.31 25.31 0 0 0 330.45 855.04A 25.31 25.31 0 0 0 355.76 829.73" stroke="rgba(59,109,67,1)" vector-effect="non-scaling-stroke"/>
    <path d="M 944.01 829.74A 25.22 25.22 0 0 0 918.79 804.52A 25.22 25.22 0 0 0 893.57 829.74A 25.22 25.22 0 0 0 918.79 854.96A 25.22 25.22 0 0 0 944.01 829.74" stroke="rgba(0,91,147,1)" vector-effect="non-scaling-stroke"/>
    <path d="M 813.21 906.6L 823.81 924.82A 0.72 0.72 -80.13 0 0 824.8 925.08L 834.05 919.69A 10.99 10.42 -30.2 0 0 838.31 905.16L 837.47 903.71A 10.99 10.42 -30.2 0 0 822.73 900.23L 813.47 905.61A 0.72 0.72 54.85 0 0 813.21 906.6" stroke="rgba(128,139,155,1)" vector-effect="non-scaling-stroke"/>
    <path d="M 649.89 956.2L 652.7 1000.85A 0.68 0.68 -86.18 0 0 653.42 1001.49L 663.47 1000.86A 21.83 20.99 86.4 0 0 683.05 977.75L 682.89 975.32A 21.83 20.99 86.4 0 0 660.57 954.85L 650.52 955.48A 0.68 0.68 77.04 0 0 649.89 956.2" stroke="rgba(128,139,155,1)" vector-effect="non-scaling-stroke"/>
  </g>
  <path d="M 327.96 251.7Q 367.59 217.5 411.94 193.94Q 516.8 138.22 634.89 140.01C 752.45 141.79 864.85 191.31 948.11 273.66Q 1002.44 327.4 1036.69 397.11Q 1054.85 434.06 1065.7 471.31Q 1086.36 542.26 1083.05 615.74C 1080.56 670.85 1068.07 724.8 1046.43 776.43Q 1028 820.41 1001.81 858.72C 961.06 918.33 905.46 969.1 841.14 1003.4Q 731.17 1062.04 608.77 1057.5C 510.54 1053.86 415.04 1017.27 338.71 955.02Q 320.8 940.42 301.47 921.03C 248.96 868.37 211.22 802.37 188.96 730.78C 164.93 653.49 161.83 570.93 180.8 492.49Q 192 446.17 212.8 402.53C 240.33 344.75 279.02 293.92 327.96 251.7Z" fill="#001736"/>
  <path d="M 619.85 207.25Q 556.08 208.3 496.91 229.17Q 411.28 259.38 346.33 325.34Q 329.39 342.54 313.51 363.51Q 270.94 419.71 250.61 487.13C 228.37 560.88 229.17 639.77 252.37 713.15C 255.14 721.91 258.99 734.02 263.37 744.24Q 265.92 750.17 268.47 756.32Q 256.65 764.74 249.05 778.29Q 246.67 782.53 245.31 785.22A 0.42 0.42 45.75 0 1 244.55 785.21Q 241.57 778.88 233.95 761.1Q 224.64 739.4 217.39 714.56C 194.11 634.86 195.04 551.92 219.68 472.66C 243.22 396.97 288.77 328.85 348.71 276.52C 412.08 221.21 491.2 186.19 574.93 175.73C 586.74 174.26 598.81 173.48 612.25 172.5Q 616.11 172.22 619.05 172.61A 0.76 0.75 -86.08 0 1 619.7 173.36L 619.85 207.25Z" fill="#75c250"/>
  <path d="M 982.86 756.77Q 1006.59 703.76 1014.26 644.75Q 1021.99 585.21 1011.95 527.83Q 1000.3 461.27 966.58 402.89C 926.82 334.06 866.11 279.22 794.35 244.92Q 718.24 208.54 633.41 207.21L 633.43 173.65A 1.18 1.17 0.24 0 1 634.62 172.48C 776.9 174.71 910.77 251.43 986.87 371.34Q 1035.89 448.58 1048.04 537.94C 1059.57 622.74 1044.98 708.86 1006.56 785.73A 0.29 0.29 -43.7 0 1 1006.03 785.72Q 999.58 771.02 987.21 760.56Q 984.45 758.23 982.86 756.77Z" fill="#009ff0"/>
  <path d="M 619.85 207.25L 633.41 207.21Q 718.24 208.54 794.35 244.92C 866.11 279.22 926.82 334.06 966.58 402.89Q 1000.3 461.27 1011.95 527.83Q 1021.99 585.21 1014.26 644.75Q 1006.59 703.76 982.86 756.77Q 974.27 750.06 965.6 746.41A 0.48 0.47 23.66 0 1 965.35 745.78Q 997.88 671.22 997.28 591.41C 996.84 532.9 981.86 474.57 954.38 423.12C 907.38 335.13 822.6 268.46 726.94 241.66C 603.43 207.06 469.62 239.06 375.32 326.04Q 301.87 393.79 272.18 486.9Q 258.1 531.09 255.54 576.14Q 252.91 622.37 261.52 666.78C 266.76 693.77 275.24 720.19 286.07 745.68A 0.42 0.41 66.9 0 1 285.86 746.22Q 277.08 750.06 268.47 756.32Q 265.92 750.17 263.37 744.24C 258.99 734.02 255.14 721.91 252.37 713.15C 229.17 639.77 228.37 560.88 250.61 487.13Q 270.94 419.71 313.51 363.51Q 329.39 342.54 346.33 325.34Q 411.28 259.38 496.91 229.17Q 556.08 208.3 619.85 207.25Z" fill="#ffffff"/>
  <path d="M 627.18 284.03Q 627.49 284.03 627.61 283.86C 635.02 273.54 645.38 266.51 658.16 264.78C 678.53 262.03 697.2 274.53 704.03 293.46C 710.01 310.02 704.98 328.78 693.45 341.95Q 688.6 347.5 678.79 357.04Q 637.92 396.79 634.66 399.91Q 630.37 404.02 627.19 406.83C 627.12 406.88 627.05 406.89 626.96 406.89C 626.86 406.89 626.79 406.88 626.72 406.82Q 623.55 404.01 619.28 399.88Q 616.03 396.75 575.3 356.85Q 565.53 347.27 560.7 341.71C 549.22 328.49 544.26 309.72 550.3 293.18C 557.2 274.27 575.91 261.84 596.27 264.67C 609.05 266.44 619.38 273.51 626.75 283.86Q 626.87 284.03 627.18 284.03Z" fill="#ffffff"/>
  <path d="M 627.18 301.64Q 627.37 301.64 627.44 301.61C 627.6 301.55 630.48 297.28 631.5 295.96C 636.37 289.64 641.26 283.67 647.75 280.33C 664.62 271.65 683.12 277.44 691.4 294.41C 697.45 306.79 694.37 320.59 686.98 331.47Q 683.86 336.06 678.41 341.4Q 652.2 367.08 627.52 391.01Q 627.38 391.15 627.15 391.15Q 626.92 391.15 626.78 391.01Q 602.11 367.06 575.92 341.37Q 570.47 336.02 567.35 331.43C 559.97 320.55 556.9 306.75 562.96 294.37C 571.25 277.4 589.75 271.63 606.62 280.32C 613.1 283.66 617.99 289.63 622.86 295.96C 623.88 297.28 626.75 301.55 626.91 301.61Q 626.99 301.64 627.18 301.64Z" fill="#fb546e"/>
  <path d="M 578.68 539.16Q 586.43 534.35 591.06 528.34C 595.12 523.07 599.21 515.43 599.52 508.76Q 599.65 505.93 599.93 500.78A 3.82 3.8 -49.22 0 0 599.86 499.79Q 597.97 490.09 591.2 483.35Q 587.36 480.58 583.83 478.02Q 578.97 474.5 577.09 472.04C 573.11 466.83 572.31 461.16 571.8 453.84Q 571.58 450.74 570.73 445.84Q 566.12 419.56 551.87 398.85Q 538.11 378.85 518.04 366.4Q 498.69 354.4 473.83 350.92Q 463.41 349.46 456.23 349.93Q 448.62 350.42 438.87 352.08Q 438.06 352.22 435.92 353.24A 0.9 0.89 77.55 0 0 435.41 354.05L 435.41 354.52A 0.86 0.86 -7.46 0 1 434.77 355.35C 420.03 359.21 406.45 367.67 394.14 376.39Q 390.01 379.31 387.13 381.87C 382.46 386.02 379.64 387.78 375.26 391.18C 371.4 394.18 368.49 397.86 365.12 400.52Q 362.33 402.71 359.58 405.71Q 349.86 416.32 341.46 428.17Q 340.88 428.98 339.41 431.73Q 337.73 434.65 333.28 443.55Q 327.78 454.55 325.36 460.25Q 324.28 462.8 322.46 468.39C 321.05 472.7 319.24 476.66 317.98 481.26Q 306.58 518.49 307.8 554.75Q 308.58 577.94 315.32 606.24C 317.32 614.68 320.38 623.48 323.18 632.82Q 325.18 639.51 332.55 655.96C 334.47 660.25 338.34 668.69 341.31 674.29Q 376.84 741.22 437.4 785.6Q 458.42 801.01 483.12 813.5L 479.4 820.94A 0.52 0.52 50.67 0 1 478.7 821.18C 420.38 792.53 371.63 745.73 339.16 689.87C 317.51 652.62 303.4 611.68 299.03 569.06Q 297.4 553.11 298.24 536.42C 299.96 501.96 308.82 468.57 324.36 437.58C 339.25 407.88 359.89 381.23 387.17 362.68Q 395.86 356.76 407.7 351.28C 429.91 341 454.55 337.54 478.58 341.4C 527.41 349.25 567.16 386.82 578.62 435.16Q 581.39 446.82 582.46 460.02C 583.02 467.01 586.92 468.65 591.96 472.04C 611.12 484.94 614.9 509.46 600.99 527.73Q 592.68 538.64 578.68 539.16Z" fill="#ffffff"/>
  <path d="M 767.58 813.29Q 798.33 798.14 825.05 776.78Q 864.17 745.5 891.95 704.36C 896.74 697.27 902.28 687.76 905.37 682.41Q 916.52 663.06 925.27 639.53C 939.26 601.89 946.28 560.11 942.19 520.82C 937.59 476.52 922.06 434.62 893.59 400.42Q 880.66 384.89 864.24 373.28Q 839.2 355.59 809.49 351.07C 777.21 346.16 742.88 356.73 718.43 377.56Q 700.38 392.94 689.72 414.39Q 679.25 435.48 677.75 459.48Q 677.34 465.93 672.67 472.02C 669.95 475.57 664.59 478.6 660.21 481.96C 654.53 486.31 651.29 492.47 650.5 499.88Q 648.81 515.75 658.47 528.03Q 663.07 533.88 672.21 539.05Q 665.01 539.37 660.17 536.87C 645.2 529.14 638.4 513.92 640.88 497.57Q 642.89 484.31 653.84 474.87Q 655.21 473.69 664.12 468A 3.49 3.43 2.97 0 0 664.91 467.3C 667.92 463.58 667.91 459.24 668.35 453.6Q 668.57 450.7 669.38 445.94C 677.44 398.5 710.83 360.89 756.36 345.89Q 781.6 337.58 809.2 340.98C 856.75 346.82 895.53 379.95 919.48 419.77C 944.44 461.27 955.44 510.32 952.46 558.27C 947.32 640.96 905.9 717.54 844.59 772.34Q 810.14 803.14 768.28 823.25A 0.29 0.29 76.49 0 1 767.86 822.99L 767.58 813.29Z" fill="#ffffff"/>
  <path d="M 591.2 483.35Q 585.97 487.58 579.41 489.92C 570.08 493.25 560.24 496.21 551.75 496.07C 544.62 495.95 539.51 496.23 533.63 495.33C 523.48 493.77 513.96 489.73 504.46 486.3Q 499.99 484.69 491.31 478.89Q 500.42 457.89 492.76 435.03Q 489.84 426.32 483.29 418.42Q 475.07 408.49 462.73 406.09C 453.64 404.33 442.03 409.42 436.53 416.34Q 432.37 421.58 429.59 428.32Q 427.11 434.32 427.13 441.75C 427.14 447.59 427.13 452.69 428.7 457.94C 429.68 461.22 432.05 465.22 433.35 469.15Q 424.75 463.35 415.34 460.04A 3.75 3.59 54.97 0 0 414.38 459.85C 408.08 459.49 402 462.48 397.19 466.43Q 392.57 470.23 389.95 478.48Q 390.25 472.03 392.55 466.5Q 393.82 463.43 395.32 459.89Q 395.7 458.97 395.59 458.63A 2.23 2.09 -17.82 0 0 392.9 457.35C 383.54 460.11 377.73 469.59 377.01 478.99Q 375.9 493.44 381.45 506.33A 1.21 1.18 -39.17 0 1 381.32 507.49C 378.18 511.86 375.3 515.6 373.18 520.24Q 366.36 535.21 364.07 549.74Q 358.97 582.18 366.89 614.34Q 378.41 661.12 409.71 699.31Q 434.83 729.95 467.25 751.23C 478.45 758.58 490.35 764.8 501.78 769.42A 1.35 1.32 87.41 0 1 502.5 770.09L 509.64 784.89A 1.03 1.02 -32.31 0 1 509.36 786.13C 503.85 790.58 500.36 793.11 496.36 797.17Q 488.94 804.72 483.12 813.5Q 458.42 801.01 437.4 785.6Q 376.84 741.22 341.31 674.29C 338.34 668.69 334.47 660.25 332.55 655.96Q 325.18 639.51 323.18 632.82C 320.38 623.48 317.32 614.68 315.32 606.24Q 308.58 577.94 307.8 554.75Q 306.58 518.49 317.98 481.26C 323.2 479.68 324.46 474.42 326.83 468.96C 329.3 463.24 333.14 457.27 335.05 452.31Q 338.53 443.29 338.77 440.16Q 339.08 436.2 339.41 431.73Q 340.88 428.98 341.46 428.17Q 349.86 416.32 359.58 405.71Q 362.33 402.71 365.12 400.52C 368.49 397.86 371.4 394.18 375.26 391.18C 379.64 387.78 382.46 386.02 387.13 381.87Q 390.01 379.31 394.14 376.39C 406.45 367.67 420.03 359.21 434.77 355.35A 0.86 0.86 -7.46 0 0 435.41 354.52L 435.41 354.05A 0.9 0.89 77.55 0 1 435.92 353.24Q 438.06 352.22 438.87 352.08Q 448.62 350.42 456.23 349.93Q 463.41 349.46 473.83 350.92Q 498.69 354.4 518.04 366.4Q 538.11 378.85 551.87 398.85Q 566.12 419.56 570.73 445.84Q 571.58 450.74 571.8 453.84C 572.31 461.16 573.11 466.83 577.09 472.04Q 578.97 474.5 583.83 478.02Q 587.36 480.58 591.2 483.35Z" fill="#75c250"/>
  <path d="M 767.58 813.29Q 766.81 809.09 766.24 805.05Q 763.45 785.21 753.34 768.88A 0.85 0.84 62.21 0 1 753.71 767.67C 787.11 752.74 816.33 728.9 839.78 701.03C 877.15 656.61 899.84 593.56 883.69 535.75Q 880.56 525.45 875.42 516.06Q 872.78 511.23 869.24 507.32A 1.23 1.23 36.68 0 1 869.04 505.97Q 873.22 497.35 873.6 486.75Q 873.93 480.8 873.04 475.73Q 870.88 463.35 859.03 457.94Q 857.33 457.16 855.81 457.65A 1.93 1.89 11.33 0 0 854.98 458.19Q 853.68 459.65 854.59 461.68Q 855.64 464.02 857.64 468.55Q 860.91 475.97 860.58 484.33Q 860.44 492.14 857.09 499.86Q 854.55 506.71 850.23 512.24C 845.76 517.97 840.14 524.08 834.2 528.83C 809.92 548.25 779.8 559.21 748.85 562.99Q 740.94 563.95 733.19 563.7Q 721.28 563.31 717.49 562.68Q 710.52 561.52 700.34 558.18A 0.36 0.36 -58.41 0 1 700.2 557.59L 706.94 550.86A 1.18 1.17 26.74 0 1 707.95 550.53Q 721.3 552.68 735.75 550.68C 762.12 547.02 788.55 536.84 809.16 519.9Q 815.64 514.57 822.28 506.53Q 825.03 503.2 826.92 499.55A 0.79 0.78 33.7 0 1 828.13 499.31C 829.9 500.8 832.17 503.23 834.13 500.06Q 835.01 498.63 834.45 496.26Q 833.29 491.32 827.04 489.01C 823.56 487.72 818.57 488.02 816.63 491.68C 815.77 493.31 817.37 495.15 818.91 495.48A 0.53 0.52 -65.64 0 1 819.22 496.31Q 813.31 504.3 805.01 510.8Q 782.23 528.64 753.6 536.02C 739.61 539.63 726.51 541.67 712.25 540.4Q 705.88 539.83 703.04 538.93C 694.73 536.29 690.65 534.29 682.62 536.71Q 676.86 538.45 672.21 539.05Q 663.07 533.88 658.47 528.03Q 648.81 515.75 650.5 499.88C 651.29 492.47 654.53 486.31 660.21 481.96C 664.59 478.6 669.95 475.57 672.67 472.02Q 677.34 465.93 677.75 459.48Q 679.25 435.48 689.72 414.39Q 700.38 392.94 718.43 377.56C 742.88 356.73 777.21 346.16 809.49 351.07Q 839.2 355.59 864.24 373.28Q 880.66 384.89 893.59 400.42C 922.06 434.62 937.59 476.52 942.19 520.82C 946.28 560.11 939.26 601.89 925.27 639.53Q 916.52 663.06 905.37 682.41C 902.28 687.76 896.74 697.27 891.95 704.36Q 864.17 745.5 825.05 776.78Q 798.33 798.14 767.58 813.29Z" fill="#009ff0"/>
  <path d="M 886.02 411.11Q 885.76 411.22 884.13 411.03Q 879.34 410.46 878.22 410.31A 16.23 15.71 -42.47 0 0 874.98 410.22Q 870.05 410.57 868.77 410.17Q 862.28 408.18 856.4 407.29A 9.51 9.36 -43.9 0 0 853.77 407.26C 845.12 408.34 836.6 408.94 830.06 402.23Q 825.65 397.71 822.18 392.7A 0.7 0.7 -20.54 0 1 822.68 391.61C 824.85 391.37 826.21 392.07 827.99 393.62Q 834.15 399 842.29 401.21Q 846.28 402.3 851.52 401.54A 1.31 1.24 -69.71 0 0 852.19 401.21L 854.79 398.79A 1.85 1.85 -48.28 0 1 857.16 398.65C 858.83 399.75 862.54 403.33 865.92 403.04C 869.75 402.7 873.06 401.72 876.37 403.4Q 883.21 406.89 886.23 408.94A 1.24 1.24 50.56 0 1 886.02 411.11Z" fill="#027cdc"/>
  <path d="M 369.42 411.58Q 368.47 411.29 367.79 409.52C 366.75 406.78 371.46 404.72 373.46 404.33C 376.79 403.68 381.18 404.35 385.4 402.5C 388.43 401.16 391.17 400.28 394.94 400.36C 401.68 400.51 411.24 401.24 416.59 397.34C 419.13 395.49 421.8 393.16 424.71 393.43A 1.14 1.13 12.56 0 1 425.68 394.95C 424.65 397.77 422.53 399.59 419.85 402.29C 413.62 408.56 406.3 407.55 398.17 406.93A 16.1 16.08 39.21 0 0 392.61 407.49C 384.99 409.65 377.79 414.14 369.42 411.58Z" fill="#53ae49"/>
  <path d="M 491.31 478.89C 485.97 488.86 476.92 496.34 465.04 493.79Q 456.85 490.56 452.01 482.23Q 443.55 467.68 445.63 451.94Q 446.86 442.68 452.43 435.42C 460 425.54 473.95 424.34 483.04 432.7C 484.2 433.77 485.12 435.2 486.44 436.38A 0.18 0.18 -82.94 0 0 486.72 436.16C 483.11 429.02 478.64 422.96 471.19 419.26C 459.01 413.2 445.89 419.52 439.33 430.32Q 432.01 442.39 433.33 456.24Q 434.21 465.54 436.59 471.88Q 435.25 472.22 433.35 469.15C 432.05 465.22 429.68 461.22 428.7 457.94C 427.13 452.69 427.14 447.59 427.13 441.75Q 427.11 434.32 429.59 428.32Q 432.37 421.58 436.53 416.34C 442.03 409.42 453.64 404.33 462.73 406.09Q 475.07 408.49 483.29 418.42Q 489.84 426.32 492.76 435.03Q 500.42 457.89 491.31 478.89Z" fill="#001736"/>
  <path d="M 803.61 409.21C 794.79 407.81 783.38 406.48 775.56 412.07A 0.99 0.92 83.25 0 0 775.23 412.52Q 775.08 412.93 774.63 413.27A 0.2 0.2 -65.46 0 0 774.76 413.63Q 775.34 413.58 776.67 414.61Q 778.29 415.86 780.82 415.69C 787.08 415.27 792.73 412.55 797.77 419.13C 784.89 413 772.13 419.24 764.83 430.58Q 762.24 434.6 761.4 436.73Q 760.53 436.25 760.16 435.83A 0.78 0.78 38.01 0 1 760.05 434.96C 763.41 428.29 767.03 425.18 773.31 419.64A 0.57 0.57 -38.32 0 0 773.4 418.88Q 772.55 417.72 771.72 417.87A 0.44 0.44 84.56 0 1 771.2 417.44L 771.2 416.72A 0.32 0.32 67.47 0 0 770.68 416.46Q 764.25 421.33 762 426.27Q 759.36 432.05 756.62 434.82C 761.34 421.22 772.42 408.16 787.26 406Q 795.52 404.8 803.61 409.21Z" fill="#010917"/>
  <path d="M 803.61 409.21C 822.13 418.46 824.07 441.82 819.18 459.44Q 818.02 463.66 814.82 467.48Q 814.31 467.4 814.21 466.27Q 815.58 459.04 815.59 452.52C 815.6 439.98 809.54 425.17 797.77 419.13C 792.73 412.55 787.08 415.27 780.82 415.69Q 778.29 415.86 776.67 414.61Q 775.34 413.58 774.76 413.63A 0.2 0.2 -65.46 0 1 774.63 413.27Q 775.08 412.93 775.23 412.52A 0.99 0.92 83.25 0 1 775.56 412.07C 783.38 406.48 794.79 407.81 803.61 409.21Z" fill="#001736"/>
  <path d="M 761.4 436.73Q 763.06 435.3 764.63 433.74C 778.48 420 797.46 429.68 801.94 446.3Q 807.46 466.8 795.73 484.23Q 791.6 490.37 784.58 493.7Q 773.76 496.21 764.9 488.61Q 763.73 487.6 760.28 482.86C 755 475.59 752.86 465.62 752.79 456.75Q 752.71 445.24 756.62 434.82Q 759.36 432.05 762 426.27Q 764.25 421.33 770.68 416.46A 0.32 0.32 -71.18 0 1 771.2 416.72L 771.2 417.44A 0.44 0.44 84.56 0 0 771.72 417.87Q 772.55 417.72 773.4 418.88A 0.57 0.57 -38.32 0 1 773.31 419.64C 767.03 425.18 763.41 428.29 760.05 434.96A 0.78 0.78 38.01 0 0 760.16 435.83Q 760.53 436.25 761.4 436.73Z" fill="#001736"/>
  <path d="M 797.77 419.13C 809.54 425.17 815.6 439.98 815.59 452.52Q 815.58 459.04 814.21 466.27L 813.6 468.29C 809.58 479.09 803.64 487.9 792.58 491.96Q 789.91 492.94 786.08 493.94Q 784.44 494.37 784.58 493.7Q 791.6 490.37 795.73 484.23Q 807.46 466.8 801.94 446.3C 797.46 429.68 778.48 420 764.63 433.74Q 763.06 435.3 761.4 436.73Q 762.24 434.6 764.83 430.58C 772.13 419.24 784.89 413 797.77 419.13Z" fill="#ffffff"/>
  <path d="M 465.04 493.79Q 465.2 494.31 465.19 494.32A 1.28 1.28 28.73 0 1 463.78 494.73C 458.09 492.79 452.04 490.48 447.58 486.43Q 443.37 482.6 442.89 481.86Q 439.47 476.57 436.59 471.88Q 434.21 465.54 433.33 456.24Q 432.01 442.39 439.33 430.32C 445.89 419.52 459.01 413.2 471.19 419.26C 478.64 422.96 483.11 429.02 486.72 436.16A 0.18 0.18 -82.94 0 1 486.44 436.38C 485.12 435.2 484.2 433.77 483.04 432.7C 473.95 424.34 460 425.54 452.43 435.42Q 446.86 442.68 445.63 451.94Q 443.55 467.68 452.01 482.23Q 456.85 490.56 465.04 493.79Z" fill="#ffffff"/>
  <path d="M 870 427.03L 873.7 425.73A 1.63 1.62 -20.4 0 1 875.75 426.66C 877.05 429.95 879.51 431.73 883.14 432.89Q 886.7 434.03 890.23 436.09C 891.54 436.86 893.42 436.96 894.61 437.49A 1.4 1.38 89.23 0 1 895.3 438.17Q 896.37 440.41 896.36 442.43A 1.28 1.27 -4.49 0 1 895.28 443.69C 889.79 444.56 882.72 438.18 878.18 434.46A 3.54 3.54 54.81 0 0 874.77 433.87C 868.82 435.97 865.03 432.5 862.46 427.58A 3.92 3.91 38.57 0 1 862.14 424.78L 862.6 423.06A 0.97 0.96 35 0 1 864.33 422.76Q 866.26 425.52 869.02 426.96A 1.23 1.21 -40.3 0 0 870 427.03Z" fill="#027cdc"/>
  <path d="M 381.26 428.22A 1.32 1.31 -60.94 0 1 381.8 430.12L 377.04 437.56A 1.61 1.6 -74.5 0 1 375.72 438.31Q 366.96 438.57 359.18 444.23A 0.61 0.61 -55.03 0 1 358.68 444.32L 353.44 442.94A 1.31 1.31 14.89 0 1 352.51 441.34L 353.83 436.35A 1.24 1.24 -77.8 0 1 355.24 435.44C 362.75 436.71 369.64 432.26 375.24 427.4A 1.5 1.47 21.41 0 1 376.11 427.03Q 378.32 426.81 381.26 428.22Z" fill="#53ae49"/>
  <path d="M 339.41 431.73Q 339.08 436.2 338.77 440.16Q 338.53 443.29 335.05 452.31C 333.14 457.27 329.3 463.24 326.83 468.96C 324.46 474.42 323.2 479.68 317.98 481.26C 319.24 476.66 321.05 472.7 322.46 468.39Q 324.28 462.8 325.36 460.25Q 327.78 454.55 333.28 443.55Q 337.73 434.65 339.41 431.73Z" fill="#9ed98b"/>
  <path d="M 475.03 439.1A 11.22 9.18 -95 0 1 485.16 449.48A 11.22 9.18 -95 0 1 476.99 461.46A 11.22 9.18 -95 0 1 466.86 451.08A 11.22 9.18 -95 0 1 475.03 439.1Z" fill="#ffffff"/>
  <path d="M 773.37 438.99A 11.35 9.35 -85.8 0 1 781.86 450.99A 11.35 9.35 -85.8 0 1 771.71 461.63A 11.35 9.35 -85.8 0 1 763.22 449.63A 11.35 9.35 -85.8 0 1 773.37 438.99Z" fill="#ffffff"/>
  <path d="M 873.6 486.75Q 868.98 485.19 866.4 481.3A 1.3 1.3 -31.17 0 0 864.69 480.88Q 862.5 482.1 860.58 484.33Q 860.91 475.97 857.64 468.55Q 855.64 464.02 854.59 461.68Q 853.68 459.65 854.98 458.19A 1.93 1.89 11.33 0 1 855.81 457.65Q 857.33 457.16 859.03 457.94Q 870.88 463.35 873.04 475.73Q 873.93 480.8 873.6 486.75Z" fill="#001736"/>
  <path d="M 433.35 469.15Q 435.25 472.22 436.59 471.88Q 439.47 476.57 442.89 481.86Q 443.37 482.6 447.58 486.43C 452.04 490.48 458.09 492.79 463.78 494.73A 1.28 1.28 28.73 0 0 465.19 494.32Q 465.2 494.31 465.04 493.79C 476.92 496.34 485.97 488.86 491.31 478.89Q 499.99 484.69 504.46 486.3C 513.96 489.73 523.48 493.77 533.63 495.33C 539.51 496.23 544.62 495.95 551.75 496.07C 560.24 496.21 570.08 493.25 579.41 489.92Q 585.97 487.58 591.2 483.35Q 597.97 490.09 599.86 499.79A 3.82 3.8 -49.22 0 1 599.93 500.78Q 599.65 505.93 599.52 508.76C 599.21 515.43 595.12 523.07 591.06 528.34Q 586.43 534.35 578.68 539.16Q 572.32 538.08 564.97 535.45C 562.95 534.73 558.39 535.48 555.4 536.37C 549.75 538.06 544.19 539.87 538.42 540.35C 517.95 542.09 497.36 537.62 478.22 530.01Q 456.25 521.27 438.5 505.48Q 434.07 501.55 430.12 496.52A 0.68 0.68 47.08 0 1 430.15 495.63Q 430.24 495.54 431.28 495.12C 433.26 494.32 433.46 492.29 431.97 490.76Q 430.04 488.78 427.14 488.61Q 418.61 488.1 415.18 495.46C 413.2 499.72 416.84 504.16 421.16 500.07A 0.85 0.85 51.56 0 1 422.46 500.22Q 430.88 513.01 444.04 522.78Q 473.42 544.6 510.49 550.32Q 525.96 552.7 541.99 550.51A 1.34 1.32 63.28 0 1 543.11 550.89L 549.57 557.35A 0.39 0.38 57.01 0 1 549.44 557.99C 528.45 565.96 503.99 564.92 482.87 559.88C 458.27 554.01 433.82 543.75 415.08 527.9Q 403.82 518.37 397.56 508.39Q 392.83 500.86 390.45 490.56Q 388.86 483.67 389.95 478.48Q 392.57 470.23 397.19 466.43C 402 462.48 408.08 459.49 414.38 459.85A 3.75 3.59 54.97 0 1 415.34 460.04Q 424.75 463.35 433.35 469.15Z" fill="#ffe258"/>
  <path d="M 814.21 466.27Q 814.31 467.4 814.82 467.48Q 814.03 469.57 813.6 468.29L 814.21 466.27Z" fill="#027cdc"/>
  <path d="M 873.6 486.75Q 873.22 497.35 869.04 505.97A 1.23 1.23 36.68 0 0 869.24 507.32Q 872.78 511.23 875.42 516.06Q 880.56 525.45 883.69 535.75Q 881.61 532.51 878.77 525.77Q 876.88 521.28 869.5 509.35Q 869.11 508.72 867.65 504.52A 0.54 0.54 58.14 0 0 866.76 504.31L 860.34 510.73A 0.52 0.52 75.73 0 1 859.47 510.21Q 860.34 507.27 862.95 504.05C 864.48 502.15 864.76 500.17 863.31 498.27Q 863.19 498.1 863.26 497.71A 0.43 0.43 3.03 0 0 862.8 497.2Q 859.77 497.45 857.09 499.86Q 860.44 492.14 860.58 484.33Q 862.5 482.1 864.69 480.88A 1.3 1.3 -31.17 0 1 866.4 481.3Q 868.98 485.19 873.6 486.75Z" fill="#010917"/>
  <path d="M 587.65 500.15A 8.74 5.45 -61.9 0 1 588.34 510.43A 8.74 5.45 -61.9 0 1 579.41 515.57A 8.74 5.45 -61.9 0 1 578.72 505.29A 8.74 5.45 -61.9 0 1 587.65 500.15Z" fill="#001736"/>
  <path d="M 663.66 500.18A 8.18 5.17 -115.7 0 1 671.87 505.31A 8.18 5.17 -115.7 0 1 670.76 514.92A 8.18 5.17 -115.7 0 1 662.55 509.79A 8.18 5.17 -115.7 0 1 663.66 500.18Z" fill="#001736"/>
  <path d="M 527.35 504.19A 9.66 6.32 -136 0 1 538.69 506.35A 9.66 6.32 -136 0 1 541.25 517.61A 9.66 6.32 -136 0 1 529.91 515.45A 9.66 6.32 -136 0 1 527.35 504.19Z" fill="#001736"/>
  <path d="M 722.39 504.17A 9.82 6.1 -44.5 0 1 719.67 515.4A 9.82 6.1 -44.5 0 1 708.39 517.93A 9.82 6.1 -44.5 0 1 711.11 506.7A 9.82 6.1 -44.5 0 1 722.39 504.17Z" fill="#001736"/>
  <path d="M 424.47 567.04Q 413.43 561.97 406.9 558.1Q 399.1 553.48 392.69 546.07Q 392.57 545.93 387.8 540.92Q 384.63 537.57 382.76 533.13Q 384.6 526.35 388.79 520.14A 0.5 0.5 44.77 0 1 389.62 520.14C 393.84 526.31 398.52 531.8 404.5 536.7C 411.65 542.55 416.68 546.71 424.57 550.77A 1.71 1.7 15.98 0 1 425.48 552.4L 424.47 567.04Z" fill="#fec625"/>
  <path d="M 869.86 538.67Q 860.92 546.41 851.65 553.87Q 847.92 556.87 846.12 557.87Q 836.85 563.02 826.98 567.05Q 827.17 559.31 825.69 552.02A 1.16 1.16 69.97 0 1 826.27 550.77Q 846.99 539.33 861.06 520.29A 0.54 0.54 -42.45 0 1 861.96 520.33Q 867.27 529.05 869.86 538.67Z" fill="#9ce3fc"/>
  <path d="M 382.76 533.13Q 384.63 537.57 387.8 540.92Q 392.57 545.93 392.69 546.07Q 399.1 553.48 406.9 558.1Q 413.43 561.97 424.47 567.04Q 424.58 576.21 427.31 586.72C 421.84 588.24 415.69 590.67 410.26 590.86Q 404.01 591.08 390.97 590.08A 3.06 3.04 19.31 0 0 388.23 591.39L 388.18 591.45A 1.22 1.22 -64.89 0 0 388.86 593.34L 402.66 596.98A 2.28 2.17 -35.11 0 0 403.13 597.05Q 416.82 597.85 429.23 593.21Q 435.06 609.76 445.55 625.46Q 452.57 635.96 461.39 645.52L 450.22 654.22Q 441.78 659.25 438.11 660.43C 430.51 662.88 423.69 665.87 414.94 666.99A 0.78 0.78 71.17 0 0 414.37 668.15L 415.77 670.58A 2.15 2.14 73.78 0 0 417.71 671.65Q 426.6 671.32 435.42 668.7C 440.44 667.21 445.55 664.28 450.43 661.66Q 453.44 660.02 456.8 658.54Q 459.61 657.29 467.13 651.29Q 476.4 660 486.82 667.49C 489.72 669.56 494.05 672.2 497.6 674.58A 0.74 0.74 27.45 0 1 497.88 675.46Q 491.04 694.15 490.44 713.88Q 487.95 714.7 485.83 716.38Q 482.33 719.17 481.65 719.52Q 479.44 720.65 477.54 721.97C 474.63 724.01 473.28 724.41 470.24 726.03A 2.08 0.81 -39.04 0 0 470 726.18L 463.15 731.52Q 429.73 706.61 407.13 672.38Q 396.97 656.99 389.01 638.22Q 375.42 606.16 375.61 570.71C 375.64 565.77 376.54 560.62 377.26 555Q 378.68 543.93 382.76 533.13Z" fill="#ffe258"/>
  <path d="M 869.86 538.67Q 871.99 544.44 873.34 552.2Q 876.78 571.93 874.48 590.75C 870.46 623.71 857.33 654.05 837.81 680.77Q 838.09 678.22 836.22 677.65Q 834.37 677.1 834.34 677.09Q 824.84 672.61 809.99 665.85A 9.91 8.9 71.73 0 1 808.42 664.95L 800.96 659.67A 22.02 21.92 -4.08 0 1 797.75 656.9L 788.27 647.02Q 810.22 624.76 821.17 595.85Q 823.87 600.5 829.91 602.07C 836.81 603.85 845.08 604.93 851.03 600.92A 0.76 0.76 -58.06 0 0 850.71 599.54C 841.52 598.28 836.56 598.02 829.46 594.97Q 826 593.48 822.43 592.13Q 826.2 579.94 826.98 567.05Q 836.85 563.02 846.12 557.87Q 847.92 556.87 851.65 553.87Q 860.92 546.41 869.86 538.67Z" fill="#baecfd"/>
  <path d="M 574.18 560.42Q 572.59 563.54 572.62 564.73Q 572.7 569.18 572.6 571.53A 1.1 1.1 -78.41 0 1 571.12 572.51Q 570.52 572.28 570.08 571.81A 1.06 1.06 64.34 0 0 569.15 571.48Q 568.11 571.63 568.22 572.72Q 568.15 572.71 568.09 572.7L 565.84 564.56Q 562.04 555.35 555.26 548.91A 0.75 0.74 60.87 0 1 555.62 547.64L 555.94 547.57A 2.83 2.81 58.8 0 1 558.32 548.16Q 564.36 553.18 568.98 558.85A 0.26 0.26 14.89 0 0 569.43 558.59Q 567.39 553.32 563.82 548.96A 0.43 0.43 56.73 0 1 563.95 548.31L 563.98 548.29A 0.75 0.75 53.31 0 1 564.85 548.42Q 570.35 553.84 574.18 560.42Z" fill="#fb546e"/>
  <path d="M 682.67 566.92Q 680.76 566.92 680.62 570.05A 1.68 1.66 57.02 0 1 680.51 570.59Q 679.98 572.01 678.51 572.78A 0.58 0.58 -16.96 0 1 677.66 572.33Q 676.76 564.59 679.08 555.36Q 680.89 552.1 684.7 548.88A 0.24 0.23 82.43 0 1 685.06 549.16C 684.18 551.03 682.54 552.79 682.1 554.95A 0.34 0.34 -17.12 0 0 682.67 555.25L 689.34 548.58A 3.09 3.08 22.56 0 1 691.51 547.69L 693.85 547.69A 0.63 0.63 -68.03 0 1 694.3 548.75Q 686.79 556.61 682.67 566.92Z" fill="#fb546e"/>
  <path d="M 679.08 555.36Q 676.76 564.59 677.66 572.33A 0.58 0.58 -16.96 0 0 678.51 572.78Q 679.98 572.01 680.51 570.59A 1.68 1.66 57.02 0 0 680.62 570.05Q 680.76 566.92 682.67 566.92Q 679.52 577.84 680.85 588.88A 0.55 0.55 -68.23 0 1 679.88 589.3Q 674.64 582.89 674.6 574.19A 0.59 0.58 67.21 0 0 673.6 573.78Q 667.63 579.79 659.64 581.9A 0.7 0.7 11.75 0 1 658.91 580.79L 679.08 555.36Z" fill="#ffffff"/>
  <path d="M 568.22 572.72Q 568.11 571.63 569.15 571.48A 1.06 1.06 64.34 0 1 570.08 571.81Q 570.52 572.28 571.12 572.51A 1.1 1.1 -78.41 0 0 572.6 571.53Q 572.7 569.18 572.62 564.73Q 572.59 563.54 574.18 560.42L 590.45 581.09A 0.53 0.53 77.55 0 1 589.91 581.94Q 581.73 579.95 576.3 573.99A 0.35 0.34 -64.04 0 0 575.7 574.2C 575.36 579.4 573.6 585.85 569.64 589.37A 0.66 0.66 72.72 0 1 568.54 588.79Q 569.57 580.79 568.22 572.72Z" fill="#ffffff"/>
  <path d="M 568.09 572.7Q 567.7 573.53 567.1 574.12A 0.48 0.47 -42.68 0 1 566.4 574.1Q 562.47 569.57 565.84 564.56L 568.09 572.7Z" fill="#010917"/>
  <path d="M 427.31 586.72L 429.23 593.21Q 416.82 597.85 403.13 597.05A 2.28 2.17 -35.11 0 1 402.66 596.98L 388.86 593.34A 1.22 1.22 -64.89 0 1 388.18 591.45L 388.23 591.39A 3.06 3.04 19.31 0 1 390.97 590.08Q 404.01 591.08 410.26 590.86C 415.69 590.67 421.84 588.24 427.31 586.72Z" fill="#a3ac45"/>
  <path d="M 821.17 595.85L 822.43 592.13Q 826 593.48 829.46 594.97C 836.56 598.02 841.52 598.28 850.71 599.54A 0.76 0.76 -58.06 0 1 851.03 600.92C 845.08 604.93 836.81 603.85 829.91 602.07Q 823.87 600.5 821.17 595.85Z" fill="#9ce3fc"/>
  <path d="M 727.46 736.25C 731.1 726.2 731.26 714.84 730.96 704.31Q 730.77 697.52 728.89 693.17Q 725.15 684.49 723.98 677.06Q 718.66 661.61 707.26 648.57Q 701.66 642.15 694.28 636.45C 685.57 629.71 677.26 624.38 667.49 621.02C 658.33 617.86 649.48 614.82 640.52 614.13Q 620.42 612.57 605.94 614.99Q 585.31 618.44 563.23 631.71Q 557.8 634.98 547.23 644.49Q 542.35 648.89 538.42 654.11Q 531.34 663.51 530.64 664.65C 522.25 678.33 516.47 693.74 515.29 709.7Q 514.58 719.31 514.84 722.74Q 515.46 730.96 516.61 737.16Q 517.75 743.32 520.68 751.1Q 525.06 762.75 531.22 773.79L 523.31 777.8A 0.71 0.71 -29.09 0 1 522.38 777.54Q 503.6 747.01 505.03 712.29Q 505.78 694.05 513.87 675.12Q 527.56 643.09 557.49 623.52Q 591.91 601.01 632.7 602.93C 646.29 603.57 660.1 606.75 672.84 611.94Q 678.98 614.44 690.85 621.47Q 704.45 629.52 716.01 643.26Q 735.27 666.15 740.3 695.49Q 741.9 704.8 741.08 717.17C 740.43 727.11 739.26 735.29 735.67 743.94A 0.45 0.45 -55.33 0 1 734.93 744.08L 727.46 736.25Z" fill="#ffffff"/>
  <path d="M 723.98 677.06Q 723.26 681.37 723.36 685.14Q 723.52 691.59 723.48 692.35Q 722.84 707.12 717.67 720.89A 1.55 1.42 60.91 0 0 717.57 721.31L 717.01 726.25C 713.01 723.16 708.9 719.38 705.25 716.75C 693.96 708.57 684.2 701.6 672.64 695.92A 5.41 5.35 86.36 0 1 670.46 693.98Q 660.06 677.66 641.19 672.57Q 624.58 668.1 607.94 674.16Q 598.83 677.47 591.45 684.38Q 573.92 700.75 575.13 724.44Q 575.31 727.87 576.92 735.14C 578.74 743.33 584.3 751.69 589.45 757.87A 0.35 0.35 68.41 0 1 589.2 758.45Q 585.4 758.65 581.49 759.12Q 554.4 762.37 531.22 773.79Q 525.06 762.75 520.68 751.1Q 517.75 743.32 516.61 737.16Q 515.46 730.96 514.84 722.74Q 514.58 719.31 515.29 709.7C 516.47 693.74 522.25 678.33 530.64 664.65Q 531.34 663.51 538.42 654.11Q 542.35 648.89 547.23 644.49Q 557.8 634.98 563.23 631.71Q 585.31 618.44 605.94 614.99Q 620.42 612.57 640.52 614.13C 649.48 614.82 658.33 617.86 667.49 621.02C 677.26 624.38 685.57 629.71 694.28 636.45Q 701.66 642.15 707.26 648.57Q 718.66 661.61 723.98 677.06Z" fill="#75c250"/>
  <path d="M 467.13 651.29Q 459.61 657.29 456.8 658.54Q 453.44 660.02 450.43 661.66Q 446.31 657.78 450.22 654.22L 461.39 645.52L 467.13 651.29Z" fill="#d3b836"/>
  <path d="M 788.27 647.02L 797.75 656.9A 22.02 21.92 -4.08 0 0 800.96 659.67L 808.42 664.95A 9.91 8.9 71.73 0 0 809.99 665.85Q 824.84 672.61 834.34 677.09Q 834.37 677.1 836.22 677.65Q 838.09 678.22 837.81 680.77L 835.57 683.64Q 829.86 684.02 826.12 681.89Q 820.35 678.61 815.33 676.09Q 806.86 671.86 804.48 670.38Q 792.47 662.92 783.01 652.25L 788.27 647.02Z" fill="#9ce3fc"/>
  <path d="M 783.01 652.25Q 792.47 662.92 804.48 670.38Q 806.86 671.86 815.33 676.09Q 820.35 678.61 826.12 681.89Q 829.86 684.02 835.57 683.64Q 828.17 693.78 818.57 703.82Q 793.26 730.31 761.99 747.98Q 755.51 751.63 749.54 754.04A 0.63 0.63 88.93 0 1 748.71 753.24Q 750.4 748.69 752.17 742.46Q 761.48 709.6 750.94 676.79A 0.94 0.93 -24.19 0 1 751.36 675.7Q 768.39 665.65 783.01 652.25Z" fill="#baecfd"/>
  <path d="M 450.22 654.22Q 446.31 657.78 450.43 661.66C 445.55 664.28 440.44 667.21 435.42 668.7Q 426.6 671.32 417.71 671.65A 2.15 2.14 73.78 0 1 415.77 670.58L 414.37 668.15A 0.78 0.78 71.17 0 1 414.94 666.99C 423.69 665.87 430.51 662.88 438.11 660.43Q 441.78 659.25 450.22 654.22Z" fill="#fec625"/>
  <path d="M 727.46 736.25L 717.01 726.25L 717.57 721.31A 1.55 1.42 60.91 0 1 717.67 720.89Q 722.84 707.12 723.48 692.35Q 723.52 691.59 723.36 685.14Q 723.26 681.37 723.98 677.06Q 725.15 684.49 728.89 693.17Q 730.77 697.52 730.96 704.31C 731.26 714.84 731.1 726.2 727.46 736.25Z" fill="#daf1d5"/>
  <path d="M 571.63 889.47Q 571.5 885.56 570.9 881.83Q 569.91 875.67 569.91 874.23C 569.91 862.11 577.54 856.07 587.43 850.7Q 593.4 847.45 600.41 846.37Q 612.12 844.56 618.19 843.43Q 632.64 852.15 647.49 854.06Q 653.85 854.87 663.85 852.8Q 671.6 851.18 679.1 844.29Q 689.38 834.82 688.97 821.09C 688.34 800.21 666.43 782.87 650.31 772.45Q 643.32 767.93 625.3 758.24Q 624.5 757.81 599.79 744.97A 4.42 4.4 -6.26 0 1 598.46 743.91C 591.8 736.08 588.48 723.57 591.42 713.47C 593.91 704.88 599.3 696.37 607.17 691.92Q 612.95 688.64 619.87 686.57A 3.89 3.84 49.92 0 1 622.7 686.83C 631.33 691.18 640.77 694.84 649.14 699.6Q 650.29 700.26 658.26 704.11Q 660.65 705.26 667.21 708.99Q 684.67 718.89 699.33 729.84Q 704.35 733.59 708.11 737.02C 711.44 740.06 715.31 743.12 719.15 746.99C 739.03 767.03 753.25 790.82 753.67 819.47C 754.38 867.57 714.93 901.54 670.96 909.76Q 632.94 916.88 597.31 903.2Q 583.34 897.84 571.63 889.47Z" fill="#009ff0"/>
  <path d="M 490.44 713.88L 490.84 726.98C 487.71 728.15 484.8 729.75 481.65 730.77C 477.12 732.24 473.9 733.58 470.48 736.79L 463.15 731.52L 470 726.18A 2.08 0.81 -39.04 0 1 470.24 726.03C 473.28 724.41 474.63 724.01 477.54 721.97Q 479.44 720.65 481.65 719.52Q 482.33 719.17 485.83 716.38Q 487.95 714.7 490.44 713.88Z" fill="#fec625"/>
  <path d="M 761.85 715.62L 771.4 722.9A 3.16 2.84 -11.17 0 0 771.87 723.18L 782.89 728.22A 1.72 1.71 40.63 0 1 783.12 731.21L 782.7 731.48A 6.59 6.58 -54.65 0 1 776.74 732.5Q 768.27 729.79 760.97 723.22A 6.04 6.01 -65.26 0 1 759.04 717.95L 759.21 716.72A 1.66 1.65 -67.56 0 1 761.85 715.62Z" fill="#9ce3fc"/>
  <path d="M 490.84 726.98C 491.46 731.46 491.7 736.12 492.77 740.27Q 494.03 745.19 494.83 750.12A 0.5 0.49 -81.01 0 1 494.12 750.64Q 481.93 744.51 470.48 736.79C 473.9 733.58 477.12 732.24 481.65 730.77C 484.8 729.75 487.71 728.15 490.84 726.98Z" fill="#fcd741"/>
  <path d="M 320.89 879.64L 314.47 889.69A 2.35 2.34 29.64 0 1 311.43 890.52Q 305.6 887.59 293.06 880.46Q 291.11 879.36 292.16 876.07Q 293.3 872.47 294.91 866.86A 2.72 2.71 32.76 0 0 294.36 864.35Q 288.9 858 284.92 850.1A 1.04 1.04 -13.47 0 0 283.99 849.53L 272.75 849.53A 3.13 3.13 83.5 0 1 269.7 847.1Q 268.75 842.93 266.97 828.99C 266.62 826.27 268.33 825.03 270.83 824.47Q 271.13 824.4 279.64 822.33A 1.88 1.88 -2.95 0 0 281.07 820.75Q 281.96 814.07 284.72 808.01A 1.46 1.44 -52.56 0 0 284.53 806.5Q 280.66 801.64 277.18 796.82Q 275.82 794.95 276.11 794.03A 3.95 3.86 -22.5 0 1 276.47 793.19Q 277.37 791.63 279.07 789.82Q 281.52 787.21 287.69 780.42Q 289.4 778.54 291.26 778.41A 1.38 1.35 -29.69 0 1 292.1 778.63L 303.46 785.89A 1.43 1.42 -41.52 0 0 304.85 785.97L 316.56 780.33A 2.2 2.2 -8.43 0 0 317.77 778.7Q 318.83 771.97 319.76 767.08Q 320.19 764.77 323.03 764.77Q 329.56 764.78 339.83 764.62Q 341.77 764.59 343.15 766.93A 1.15 1.15 67.5 0 1 343.27 767.29L 344.89 779.64A 1.22 1.21 8.58 0 0 345.59 780.58L 357.8 785.99A 1.34 1.33 41.62 0 0 359.04 785.92Q 363.78 783.09 369.31 779.63C 371.07 778.53 372.07 778.52 373.56 780.08Q 379.58 786.37 385.06 793.46A 2.23 2.22 -44.33 0 1 385.02 796.24L 376.78 806.3A 1.97 1.97 -34.47 0 0 376.43 808.17L 380.83 821.55A 1.27 1.25 -1.16 0 0 381.7 822.37L 392.25 825.15A 2.72 2.71 -78.81 0 1 394.25 828.14L 391.74 846.71A 2.97 2.97 -87.32 0 1 388.93 849.27L 377.42 849.78A 1.78 1.78 12.9 0 0 375.92 850.72Q 371.94 858.22 366.55 864.51A 1.58 1.57 -34.15 0 0 366.25 866.03Q 366.47 866.67 370.29 876.67C 371.13 878.88 369.58 880.63 367.55 881.77Q 361.36 885.25 350.11 890.57A 2.36 2.35 -27.56 0 1 347.06 889.62L 341.16 879.41A 1.37 1.37 70.54 0 0 339.77 878.74Q 330.87 880.07 322.49 878.9A 1.65 1.64 -69.55 0 0 320.89 879.64Z" fill="#75c250"/>
  <path d="M 868.46 821.96A 1.26 1.25 85.15 0 0 869.32 820.94Q 870.25 814.42 873.6 807.98A 1.85 1.83 -49.51 0 0 873.46 806.06Q 870.14 801.51 865.59 795.8Q 864.43 794.34 865.97 792.42Q 869.41 788.13 878.23 779.04A 2.59 2.58 -51.59 0 1 881.47 778.66L 892.12 785.46A 1.58 1.56 49.77 0 0 893.58 785.59L 905.9 780.47A 1.59 1.59 83.33 0 0 906.86 779.25Q 907.91 772.61 908.31 769.69C 908.8 766.19 909.87 764.6 913.53 764.68Q 920.85 764.85 929.52 764.92Q 931.48 764.94 932.78 767.33A 0.86 0.76 30.13 0 1 932.87 767.6L 934.28 779.74A 1.51 1.51 -81.29 0 0 935.16 780.94L 946.24 785.86A 1.75 1.74 41.55 0 0 947.81 785.77L 959.69 778.91A 1.94 1.94 53.12 0 1 962.05 779.25Q 967.68 785.18 973.37 792.46Q 975.44 795.11 973.52 797.25Q 973.4 797.38 965.4 806.64A 1.22 1.22 -32.75 0 0 965.15 807.77L 969.15 821.52A 0.94 0.93 88.81 0 0 969.82 822.17Q 974.96 823.5 980.55 825.16Q 982.69 825.8 982.42 828.34Q 981.01 841.37 980.01 846.24C 979.26 849.84 977.34 849.32 973.78 849.41Q 971.39 849.47 965.5 849.42A 1.02 1.02 -77.02 0 0 964.56 850.01Q 960.6 858.46 954.58 864.75A 0.9 0.9 -33.45 0 0 954.39 865.66Q 956.65 871.89 958.67 877.02C 959.35 878.77 958.04 880.17 956.33 881.11C 948.01 885.7 942.2 889.34 937.3 890.81A 1.95 1.95 66.77 0 1 935.05 889.91L 928.99 879.4A 1.73 1.72 -20.73 0 0 927.16 878.58Q 918.35 880.37 909.63 878.58A 0.7 0.69 22.44 0 0 908.9 878.88L 901.8 889.99A 1.7 1.7 28.07 0 1 899.69 890.63Q 889.1 886 880.22 880.9Q 877.94 879.58 879.04 876.47Q 880.89 871.24 882.92 865.9A 1.02 1.02 -54.74 0 0 882.74 864.85Q 877.39 858.6 873.31 850.42A 1.61 1.6 -13.05 0 0 871.87 849.53L 860.77 849.53A 2.8 2.8 -5.02 0 1 858.01 847.22Q 856.54 838.96 855.38 829.5C 855.06 826.91 855.9 825.54 858.52 824.8Q 867.15 822.38 868.46 821.96Z" fill="#009ff0"/>
  <path d="M 556.17 898.72A 0.23 0.23 73.82 0 1 555.95 899.12C 527.31 891.04 478.01 869.29 491.2 830.18Q 494.09 821.6 502.33 811.82C 510.83 801.72 522.84 793.89 535.1 787.66C 562.58 773.68 594.64 768.39 624.99 775.05A 5.93 5.84 -25.2 0 1 626.44 775.56C 639.86 782.29 653.38 790.39 663.7 801.86C 671.08 810.06 676.69 822.03 668.85 831.9C 664.29 837.64 656.34 839.39 649.28 838.53A 2.24 2.18 -22.59 0 1 648.22 838.11C 644.58 835.35 642.47 833.46 639.21 831.74Q 626.74 825.14 620.76 822.74Q 618.55 821.84 610.52 819.67C 595.92 815.72 579.8 816.67 566.81 821.84C 553.33 827.2 542.99 835.12 537.24 848.47C 529.85 865.66 538.14 884.01 552.06 895.21Q 553.82 896.63 556.17 898.72Z" fill="#ffe258"/>
  <path d="M 355.76 829.73A 25.31 25.31 0 0 1 330.45 855.04A 25.31 25.31 0 0 1 305.14 829.73A 25.31 25.31 0 0 1 330.45 804.42A 25.31 25.31 0 0 1 355.76 829.73Z" fill="#001736"/>
  <path d="M 944.01 829.74A 25.22 25.22 0 0 1 918.79 854.96A 25.22 25.22 0 0 1 893.57 829.74A 25.22 25.22 0 0 1 918.79 804.52A 25.22 25.22 0 0 1 944.01 829.74Z" fill="#001736"/>
  <path d="M 618.19 843.43Q 612.12 844.56 600.41 846.37Q 593.4 847.45 587.43 850.7C 577.54 856.07 569.91 862.11 569.91 874.23Q 569.91 875.67 570.9 881.83Q 571.5 885.56 571.63 889.47Q 563.8 884.28 556.15 875.86C 546.91 865.69 549.81 851.18 560.09 843.1C 569.2 835.94 577.77 832.84 588.83 832.22C 593.71 831.94 598.63 831.5 602.93 832.87A 2.51 2.34 72.37 0 1 603.8 833.36Q 610.3 838.96 618.19 843.43Z" fill="#018be7"/>
  <path d="M 461.51 894.98Q 465.73 897.14 476.62 902.96C 479.33 904.41 478.59 906.82 477.23 909.19Q 468.67 924.11 453.1 951.82C 444.71 966.73 428.93 973.2 412.38 967.87C 391.97 961.29 378.63 944.01 384.04 922.08Q 385.15 917.6 391.02 907.96Q 410.57 875.89 414.13 870.38C 415.42 868.38 417.66 869.1 419.57 870.29Q 427.55 875.26 432.75 878.7C 434.81 880.05 433.93 882.31 432.79 884.15Q 410.18 921.02 408.49 923.99Q 401.68 935.96 411.99 944.19C 419.29 950.02 428.23 948.09 432.87 940.08Q 446.65 916.27 455.1 900.86Q 456.37 898.53 458.13 895.86A 2.62 2.62 -59.54 0 1 461.51 894.98Z" fill="#ffffff"/>
  <path d="M 834.41 943.33Q 839.06 951.94 844.54 961.06Q 846.1 963.66 844.72 965.44A 2.42 2.28 1.76 0 1 844.03 966.05Q 836.77 970.21 829.31 974.41Q 825.82 976.37 824.07 973.2Q 786.15 904.58 784.88 902.34A 0.93 0.86 28.76 0 1 784.76 901.98Q 784.46 899.43 786.52 898.24Q 797.23 892.07 813.29 882.53Q 817.49 880.04 823 878.54C 840.61 873.74 854.57 883.06 860.5 899.43C 864.95 911.71 860.39 924.36 850.33 932.37Q 843.5 937.82 834.82 942.04A 0.94 0.94 62.65 0 0 834.41 943.33Z" fill="#ffffff"/>
  <path d="M 813.21 906.6A 0.72 0.72 -80.08 0 1 813.47 905.61L 822.73 900.23A 10.99 10.42 -30.2 0 1 837.47 903.71L 838.31 905.16A 10.99 10.42 -30.2 0 1 834.05 919.69L 824.8 925.08A 0.72 0.72 -69.05 0 1 823.81 924.82L 813.21 906.6Z" fill="#001736"/>
  <path d="M 744.83 950.24A 0.59 0.59 -18.89 0 0 745.59 950.61L 774.99 940.25A 2.32 2.31 71.9 0 1 777.98 941.77Q 779.65 947.32 782.59 955.2Q 783.41 957.4 781.47 958.44Q 779.86 959.31 770.32 962.54Q 756.65 967.16 751.85 968.97A 0.9 0.89 -20.1 0 0 751.32 970.1L 755.42 981.74A 0.85 0.85 -18.98 0 0 756.49 982.26Q 774.42 976.33 791.06 969.8C 793.1 969 794.24 970.55 794.87 972.41Q 797.05 978.81 799.16 983.88C 800.13 986.23 800.07 988.14 797.59 989.1Q 770.57 999.55 742.31 1008.1A 2.35 2.31 37.37 0 1 741.51 1008.2Q 738.81 1008.12 738.07 1005.71Q 725.82 966.1 714.79 930.99Q 714.07 928.69 714.29 927.12A 3.03 3.02 85.71 0 1 716.39 924.67Q 741.9 916.81 767.96 906.95C 770.01 906.17 771.13 907.94 771.75 909.75Q 775.06 919.47 776.24 922.96A 2.56 2.56 70.89 0 1 774.67 926.2L 741.33 937.95A 0.53 0.52 71.05 0 0 741.01 938.62L 744.83 950.24Z" fill="#ffffff"/>
  <path d="M 531.15 970.5A 0.53 0.53 43.24 0 0 532.16 970.47Q 538.38 946.26 543.22 928.28Q 543.86 925.92 546.53 926.52Q 554.51 928.3 561.87 929.93C 566.23 930.9 564.91 934.33 563.96 937.96C 559.2 956.27 554.43 975.22 549.26 993.79Q 547.01 1001.87 544.89 1011.59Q 543.87 1016.31 539.42 1015.1Q 532.99 1013.36 525.08 1011.7Q 523.15 1011.29 522 1010.04A 1.85 1.8 -75.82 0 1 521.63 1009.4L 503.94 955.64A 0.67 0.67 44.41 0 0 502.67 955.65Q 497.71 971.62 489.28 998.29C 488.39 1001.1 485.84 999.97 483.36 999.15Q 474.41 996.2 470.63 994.9C 465.85 993.26 467.62 990.28 469.02 986.16Q 471.95 977.52 477.38 960.42Q 489.61 921.8 491.72 914.78C 492.6 911.88 493.79 910.72 496.93 911.58Q 498.04 911.88 512.03 916.59A 3.26 3.25 0.21 0 1 514.09 918.66L 531.15 970.5Z" fill="#ffffff"/>
  <path d="M 599.33 1019.91A 3.27 3.27 0 0 1 595.77 1022.86L 578.75 1021.28A 3.27 3.27 0 0 1 575.79 1017.72L 583.29 936.93A 3.27 3.27 0 0 1 586.85 933.98L 603.87 935.56A 3.27 3.27 0 0 1 606.83 939.12L 599.33 1019.91Z" fill="#ffffff"/>
  <path d="M 625.65 940.2A 3.93 3.93 -65.74 0 1 629.33 936.04L 660.54 934.13A 43.22 42.16 -3.5 0 1 706.25 973.57L 706.46 976.94A 43.22 42.16 -3.5 0 1 665.89 1021.66L 634.68 1023.57A 3.93 3.93 24.01 0 1 630.52 1019.89L 625.65 940.2Z" fill="#ffffff"/>
  <path d="M 649.89 956.2A 0.68 0.68 -63.82 0 1 650.52 955.48L 660.57 954.85A 21.83 20.99 86.4 0 1 682.89 975.32L 683.05 977.75A 21.83 20.99 86.4 0 1 663.47 1000.86L 653.42 1001.49A 0.68 0.68 -63.73 0 1 652.7 1000.85L 649.89 956.2Z" fill="#001736"/>
</svg>
